<?xml version="1.0" standalone="no"?>
<!DOCTYPE svg PUBLIC "-//W3C//DTD SVG 20010904//EN"
 "http://www.w3.org/TR/2001/REC-SVG-20010904/DTD/svg10.dtd">
<svg version="1.0" xmlns="http://www.w3.org/2000/svg"
 width="1200.000000pt" height="628.000000pt" viewBox="0 0 1200.000000 628.000000"
 preserveAspectRatio="xMidYMid meet">

<g transform="translate(0.000000,628.000000) scale(0.100000,-0.100000)"
fill="#000000" stroke="none">
<path d="M7047 6043 c-13 -12 -7 -70 8 -83 17 -14 47 -10 53 8 3 9 -3 11 -22
6 -24 -6 -26 -3 -26 23 0 36 9 46 27 31 15 -12 28 -5 18 11 -7 12 -48 15 -58
4z"/>
<path d="M7148 6025 c-22 -49 25 -98 60 -63 7 7 12 24 12 38 0 51 -52 69 -72
25z m50 -23 c3 -27 0 -32 -17 -32 -16 0 -21 6 -21 28 0 53 33 56 38 4z"/>
<path d="M7250 6000 c0 -27 5 -50 10 -50 6 0 10 14 10 32 0 25 3 29 12 20 8
-8 15 -9 25 -1 10 9 13 5 13 -20 0 -19 4 -30 10 -26 16 10 13 95 -4 95 -8 0
-17 -8 -21 -17 -6 -17 -7 -17 -19 0 -23 31 -36 19 -36 -33z"/>
<path d="M7377 6044 c-13 -13 -7 -71 8 -84 8 -6 23 -9 35 -5 18 6 21 13 18 48
-3 37 -6 42 -28 45 -14 2 -29 0 -33 -4z m43 -45 c0 -19 -5 -29 -15 -29 -15 0
-22 50 -9 63 12 12 24 -4 24 -34z"/>
<path d="M7520 6000 c0 -27 5 -50 10 -50 6 0 10 9 10 20 0 11 7 20 15 20 8 0
15 5 15 10 0 6 -7 10 -15 10 -27 0 -16 29 13 33 22 3 20 4 -10 6 l-38 1 0 -50z"/>
<path d="M7620 6005 c0 -49 18 -67 49 -48 18 11 29 93 12 93 -6 0 -11 -18 -11
-41 0 -33 -3 -40 -17 -37 -13 2 -17 13 -16 41 0 20 -4 37 -8 37 -5 0 -9 -20
-9 -45z"/>
<path d="M7720 6000 c0 -27 5 -50 10 -50 6 0 10 15 10 33 l0 32 21 -32 c12
-18 25 -33 30 -33 5 0 9 23 9 50 0 28 -4 50 -10 50 -5 0 -10 -12 -10 -27 l-1
-28 -20 28 c-30 39 -39 34 -39 -23z"/>
<path d="M7836 6035 c-10 -28 -7 -62 9 -75 17 -14 47 -10 53 8 3 9 -3 11 -22
6 -24 -6 -26 -3 -26 23 0 38 8 45 32 32 16 -9 19 -8 16 3 -7 20 -54 22 -62 3z"/>
<path d="M7943 6000 c0 -30 2 -43 4 -27 2 15 2 39 0 55 -2 15 -4 2 -4 -28z"/>
<path d="M7997 6044 c-4 -4 -7 -24 -7 -45 0 -28 5 -39 19 -44 36 -11 52 4 49
49 -3 36 -6 41 -28 44 -14 2 -29 0 -33 -4z m43 -45 c0 -19 -5 -29 -15 -29 -15
0 -22 50 -9 63 12 12 24 -4 24 -34z"/>
<path d="M8101 5998 c1 -29 4 -41 6 -25 5 34 16 34 33 2 20 -38 30 -30 30 25
0 28 -4 50 -10 50 -5 0 -10 -12 -10 -27 l-1 -28 -17 28 c-25 40 -32 33 -31
-25z"/>
<path d="M8217 6003 c-8 -27 -12 -50 -9 -53 2 -3 7 1 9 8 6 14 39 16 48 2 17
-28 21 -4 7 40 -9 28 -22 50 -29 50 -7 0 -19 -21 -26 -47z m37 -15 c-9 -14
-23 2 -17 18 4 12 8 13 14 3 4 -7 5 -17 3 -21z"/>
<path d="M8327 6043 c-13 -13 -7 -25 7 -14 19 16 32 -5 15 -25 -18 -22 -5 -27
16 -4 9 10 15 26 12 35 -6 15 -38 21 -50 8z"/>
<path d="M8760 6001 c0 -28 5 -51 10 -51 6 0 10 9 10 20 0 11 4 20 9 20 5 0
13 -9 16 -20 11 -35 21 -22 20 28 0 46 -1 47 -32 50 l-33 3 0 -50z m53 24 c1
-5 -6 -11 -15 -13 -11 -2 -18 3 -18 13 0 17 30 18 33 0z"/>
<path d="M8877 6003 c-7 -27 -12 -50 -9 -53 3 -3 7 1 9 8 3 6 15 12 28 12 13
0 25 -6 28 -12 2 -7 6 -11 9 -8 10 10 -24 100 -37 100 -8 0 -20 -20 -28 -47z
m37 -15 c-9 -14 -23 2 -17 18 4 12 8 13 14 3 4 -7 5 -17 3 -21z"/>
<path d="M8980 6000 c0 -27 5 -50 10 -50 6 0 10 12 10 28 l1 27 20 -28 c11
-15 25 -25 30 -21 12 7 12 94 -1 94 -5 0 -10 -12 -10 -27 l-1 -28 -22 28 c-13
15 -26 27 -30 27 -4 0 -7 -22 -7 -50z"/>
<path d="M9090 6000 l0 -51 33 3 c31 3 32 5 32 48 0 43 -1 45 -32 48 l-33 3 0
-51z m48 2 c2 -24 -1 -32 -12 -32 -12 0 -16 10 -16 36 0 45 24 42 28 -4z"/>
<path d="M9201 6036 c-31 -37 9 -103 47 -80 36 23 23 94 -18 94 -10 0 -23 -6
-29 -14z m49 -37 c0 -22 -5 -29 -20 -29 -15 0 -20 7 -20 29 0 28 16 44 33 34
4 -2 7 -17 7 -34z"/>
<path d="M9300 6000 c0 -27 5 -50 10 -50 6 0 10 14 10 31 0 27 2 30 15 19 12
-10 15 -10 15 1 0 21 18 -3 23 -31 2 -14 5 -1 6 28 1 51 -10 67 -27 36 -8 -14
-10 -14 -21 0 -23 27 -31 18 -31 -34z"/>
<path d="M9420 5999 c0 -31 4 -48 10 -44 6 3 10 26 10 51 0 24 -4 44 -10 44
-5 0 -10 -23 -10 -51z"/>
<path d="M9488 6043 c27 -5 27 -11 2 -43 -28 -36 -25 -50 10 -50 17 0 30 5 30
10 0 6 -9 10 -21 10 -20 0 -20 0 -1 28 36 52 36 52 -5 51 -23 -1 -29 -3 -15
-6z"/>
<path d="M9582 6011 c-16 -51 -16 -69 0 -53 16 16 45 15 51 0 2 -7 7 -10 11
-7 10 9 -25 99 -38 99 -7 0 -18 -17 -24 -39z m32 -23 c-9 -14 -23 2 -17 18 4
12 8 13 14 3 4 -7 5 -17 3 -21z"/>
<path d="M9680 6001 c0 -28 5 -51 10 -51 6 0 10 9 10 20 0 11 4 20 9 20 5 0
13 -9 16 -20 11 -35 21 -22 20 28 0 46 -1 47 -32 50 l-33 3 0 -50z m48 21 c2
-7 -3 -12 -12 -12 -9 0 -16 7 -16 16 0 17 22 14 28 -4z"/>
<path d="M10145 6003 c8 -27 15 -49 15 -50 0 -2 4 -3 9 -3 11 0 43 91 35 99
-7 8 -24 -20 -24 -41 0 -29 -17 -20 -23 12 -4 17 -11 30 -16 30 -6 0 -4 -20 4
-47z"/>
<path d="M10240 6000 l0 -50 35 0 c19 0 35 5 35 10 0 6 -11 10 -25 10 -14 0
-25 5 -25 10 0 6 7 10 15 10 8 0 15 5 15 10 0 6 -7 10 -15 10 -27 0 -16 29 13
33 22 3 20 4 -10 6 l-38 1 0 -50z"/>
<path d="M10340 6001 c0 -28 5 -51 10 -51 6 0 10 9 10 20 0 11 4 20 9 20 5 0
13 -9 16 -20 11 -35 21 -22 20 28 0 46 -1 47 -32 50 l-33 3 0 -50z m48 21 c2
-7 -3 -12 -12 -12 -9 0 -16 7 -16 16 0 17 22 14 28 -4z"/>
<path d="M10447 6043 c-14 -14 -6 -34 18 -45 33 -15 32 -32 -2 -23 -24 6 -25
4 -13 -10 18 -22 54 -15 58 11 2 14 -5 24 -23 32 -14 7 -23 17 -20 23 5 7 11
6 21 -2 16 -13 30 -6 19 10 -7 12 -48 15 -58 4z"/>
<path d="M10540 6006 c0 -25 5 -48 10 -51 6 -4 10 13 10 44 0 28 -4 51 -10 51
-5 0 -10 -20 -10 -44z"/>
<path d="M10607 6044 c-4 -4 -7 -24 -7 -45 0 -29 5 -39 20 -44 32 -10 51 13
48 54 -3 30 -7 36 -28 39 -14 2 -29 0 -33 -4z m43 -45 c0 -19 -5 -29 -15 -29
-15 0 -22 50 -9 63 12 12 24 -4 24 -34z"/>
<path d="M10706 6016 c-4 -18 -3 -42 1 -52 6 -15 9 -12 13 16 l5 35 20 -32
c11 -18 23 -33 27 -33 4 0 8 23 8 50 0 28 -4 50 -10 50 -5 0 -10 -12 -10 -27
l-1 -28 -17 28 c-22 35 -28 34 -36 -7z"/>
<path d="M10820 6000 c0 -49 1 -50 30 -50 17 0 30 5 30 10 0 6 -11 10 -25 10
-14 0 -25 5 -25 10 0 6 9 10 20 10 11 0 20 5 20 10 0 6 -9 10 -21 10 -28 0
-19 23 12 31 21 6 21 7 -8 8 -33 1 -33 1 -33 -49z"/>
<path d="M10913 6033 c-4 -10 0 -21 11 -27 10 -6 25 -17 34 -24 15 -12 12 -13
-17 -8 -29 5 -32 4 -21 -9 18 -22 54 -15 58 11 2 14 -5 24 -23 32 -14 7 -23
17 -20 23 5 7 11 6 21 -2 16 -13 30 -6 19 10 -10 17 -55 13 -62 -6z"/>
<path d="M6965 5970 c-15 -16 -15 -22 -5 -35 16 -19 34 -19 51 1 11 14 10 16
-6 14 -35 -4 -38 0 -20 20 10 11 14 20 8 20 -5 0 -18 -9 -28 -20z"/>
<path d="M1011 5918 c1 -29 4 -43 6 -31 2 12 14 24 26 26 l22 4 -22 8 c-31 10
-29 25 2 25 14 0 25 5 25 10 0 6 -13 10 -30 10 -30 0 -30 -1 -29 -52z"/>
<path d="M1100 5920 c0 -27 5 -50 10 -50 6 0 10 23 10 50 0 28 -4 50 -10 50
-5 0 -10 -22 -10 -50z"/>
<path d="M1150 5960 c0 -5 6 -10 14 -10 10 0 16 -14 19 -42 l4 -43 1 43 c1 30
6 42 17 42 8 0 15 5 15 10 0 6 -16 10 -35 10 -19 0 -35 -4 -35 -10z"/>
<path d="M1250 5920 c0 -27 5 -50 10 -50 6 0 10 12 10 28 l1 27 22 -27 c13
-16 26 -28 30 -28 4 0 7 23 7 50 0 28 -4 50 -10 50 -5 0 -10 -15 -10 -32 l0
-33 -20 33 c-28 45 -40 40 -40 -18z"/>
<path d="M1360 5920 l0 -50 38 1 c31 1 33 2 13 8 -33 9 -38 28 -9 34 l23 4
-22 8 c-31 10 -29 25 2 25 14 0 25 5 25 10 0 6 -16 10 -35 10 l-35 0 0 -50z"/>
<path d="M1471 5961 c-18 -12 -7 -41 19 -48 20 -5 25 -15 13 -26 -3 -4 -12 -2
-20 5 -16 13 -31 2 -16 -13 16 -16 57 -7 61 13 2 11 -6 22 -22 29 -33 16 -34
33 -1 25 27 -7 35 8 9 18 -20 8 -26 7 -43 -3z"/>
<path d="M1572 5958 c-18 -18 -15 -26 19 -44 22 -11 28 -19 21 -26 -8 -8 -16
-7 -27 2 -18 15 -34 5 -18 -11 18 -18 58 -6 61 19 2 12 -1 22 -5 22 -5 0 -18
7 -29 16 -18 15 -18 15 9 9 21 -4 28 -2 25 7 -6 18 -40 22 -56 6z"/>
<path d="M1710 5921 c0 -28 5 -51 10 -51 6 0 10 9 10 20 0 11 4 20 9 20 5 0
13 -9 16 -20 11 -34 20 -22 20 28 0 46 -1 47 -32 50 l-33 3 0 -50z m50 19 c0
-5 -7 -10 -15 -10 -8 0 -15 5 -15 10 0 6 7 10 15 10 8 0 15 -4 15 -10z"/>
<path d="M1828 5920 c-16 -50 -13 -61 10 -38 10 10 17 10 33 0 12 -8 22 -12
23 -10 7 9 -27 98 -38 98 -7 0 -19 -22 -28 -50z m42 -12 c0 -5 -7 -8 -15 -8
-17 0 -18 2 -9 25 5 13 8 14 15 3 5 -7 9 -16 9 -20z"/>
<path d="M1930 5920 c0 -53 16 -69 22 -22 l4 27 14 -27 c22 -45 40 -35 40 22
0 55 -17 69 -22 18 l-3 -33 -18 33 c-25 46 -37 40 -37 -18z"/>
<path d="M2040 5919 l0 -50 33 3 c29 3 32 6 35 42 4 42 -8 56 -45 56 -21 0
-23 -5 -23 -51z m48 -1 c-4 -46 -28 -49 -28 -4 0 26 4 36 16 36 11 0 14 -8 12
-32z"/>
<path d="M2152 5958 c-30 -30 -4 -94 35 -86 14 3 18 13 18 48 0 37 -3 45 -20
48 -11 1 -26 -3 -33 -10z m46 -37 c4 -23 -15 -44 -30 -35 -4 3 -8 19 -8 35 0
24 4 30 18 27 9 -2 19 -14 20 -27z"/>
<path d="M2250 5920 c0 -27 5 -50 10 -50 6 0 10 15 10 33 0 20 3 27 8 19 5 -7
16 -10 24 -7 12 5 14 1 11 -19 -3 -16 -1 -26 6 -26 7 0 11 20 11 50 0 54 -5
60 -26 33 -13 -17 -15 -17 -25 0 -18 30 -29 18 -29 -33z"/>
<path d="M2370 5920 c0 -27 5 -50 10 -50 6 0 10 23 10 50 0 28 -4 50 -10 50
-5 0 -10 -22 -10 -50z"/>
<path d="M2420 5960 c0 -5 9 -10 21 -10 l21 0 -21 -34 c-12 -18 -21 -36 -21
-40 0 -3 17 -5 38 -5 23 1 28 3 15 6 -28 5 -29 20 -3 53 27 35 25 40 -15 40
-19 0 -35 -4 -35 -10z"/>
<path d="M2520 5920 c0 -50 0 -50 33 -49 27 1 29 2 9 7 -28 8 -30 24 -5 33 17
6 17 7 1 14 -24 10 -23 25 1 25 11 0 23 5 26 10 4 6 -8 10 -29 10 l-36 0 0
-50z"/>
<path d="M2621 5918 c0 -46 2 -50 11 -28 l10 25 15 -22 c18 -27 39 -32 25 -6
-7 11 -6 23 1 34 14 23 -7 49 -39 49 -22 0 -24 -4 -23 -52z m49 22 c0 -5 -9
-10 -21 -10 -11 0 -17 5 -14 10 3 6 13 10 21 10 8 0 14 -4 14 -10z"/>
<path d="M9185 4781 c-85 -39 -163 -138 -200 -252 -24 -77 -46 -100 -77 -80
-20 13 -46 4 -83 -29 -16 -14 -47 -19 -160 -24 -77 -3 -199 -11 -272 -17 -129
-11 -132 -11 -168 11 -32 20 -40 21 -61 10 -13 -8 -25 -11 -27 -9 -2 2 -18 35
-36 72 -39 82 -122 169 -188 200 -99 46 -336 20 -466 -51 -60 -33 -92 -69
-131 -152 -27 -57 -31 -78 -34 -171 -4 -97 -2 -111 24 -175 36 -91 61 -130
118 -182 95 -87 178 -104 362 -74 114 19 182 41 230 77 21 15 22 14 44 -52 12
-38 28 -78 36 -90 7 -12 16 -41 20 -65 10 -71 54 -220 76 -259 22 -40 22 -71
-3 -229 -24 -147 -18 -222 23 -318 40 -93 106 -207 153 -267 18 -22 35 -55 38
-72 7 -37 14 -34 -113 -52 -95 -14 -236 -81 -306 -146 -27 -26 -63 -53 -81
-60 -17 -7 -36 -23 -42 -34 -7 -13 -12 -99 -14 -228 -1 -186 1 -217 21 -296
29 -117 29 -163 0 -170 -16 -5 -31 1 -50 20 -16 15 -28 22 -28 16 0 -5 9 -18
20 -28 26 -24 25 -37 -5 -65 -14 -13 -25 -28 -25 -34 0 -5 14 3 30 19 17 16
30 24 30 18 0 -6 -15 -24 -32 -39 -18 -15 -38 -38 -43 -51 -6 -14 -30 -34 -54
-46 -50 -25 -67 -46 -57 -72 6 -17 22 -18 233 -12 124 3 229 9 233 14 10 10
-12 119 -35 176 -9 23 -26 48 -37 56 -19 13 -20 21 -15 108 4 51 16 125 28
163 20 67 22 131 7 249 -5 37 36 43 152 24 l97 -16 147 42 c81 24 163 49 182
57 23 10 40 11 52 5 35 -19 90 -87 102 -126 22 -68 76 -168 124 -227 83 -102
184 -152 336 -168 41 -4 104 -13 140 -18 36 -6 104 -14 153 -17 57 -5 93 -12
102 -22 19 -19 11 -33 -20 -33 -31 0 -55 -10 -55 -22 0 -6 14 -8 37 -3 l36 6
-26 -31 c-15 -17 -27 -36 -27 -43 0 -6 16 9 36 32 44 51 56 41 39 -31 -9 -43
-16 -53 -45 -67 -26 -12 -35 -23 -35 -41 0 -24 2 -25 85 -28 110 -4 148 8 198
62 22 24 56 56 76 71 29 22 36 34 36 61 0 50 -17 85 -67 136 -37 37 -52 46
-69 42 -35 -9 -145 30 -293 104 -130 64 -137 66 -217 68 -128 3 -121 -3 -188
167 -19 48 -53 116 -75 151 -25 40 -50 100 -66 156 -28 100 -72 195 -115 250
-35 45 -92 174 -119 271 -37 133 -28 307 22 429 30 74 30 77 32 275 l2 200 36
109 c20 60 43 141 52 180 17 84 34 136 44 136 4 0 13 -17 19 -38 16 -54 83
-154 124 -185 79 -60 120 -71 300 -75 202 -5 241 4 323 80 95 87 158 249 150
387 -10 171 -96 320 -222 385 -50 25 -421 23 -478 -3z m-366 -440 c26 -17 6
-135 -39 -226 -54 -111 -128 -322 -151 -435 -23 -109 -43 -139 -79 -120 -21
11 -22 16 -14 64 4 28 8 87 9 131 0 66 -4 85 -21 110 -12 17 -23 39 -25 50 -3
14 -14 21 -34 23 -17 2 -36 9 -43 14 -9 8 -16 8 -24 0 -16 -16 -28 -15 -28 2
0 7 -11 21 -23 29 -22 14 -25 14 -40 -4 -30 -34 -61 -24 -89 29 -32 57 -58
144 -58 189 0 27 6 35 32 49 18 9 44 29 58 45 25 26 32 27 176 38 270 21 374
24 393 12z"/>
<path d="M2087 4744 c-4 -4 -7 -108 -7 -231 l0 -223 50 0 50 0 0 95 0 95 76 0
75 0 -3 38 -3 37 -72 3 -73 3 0 54 0 55 111 0 110 0 -3 38 -3 37 -151 3 c-82
1 -153 -1 -157 -4z"/>
<path d="M2457 4743 c-4 -3 -7 -107 -7 -230 l0 -223 45 0 45 0 0 230 0 230
-38 0 c-21 0 -42 -3 -45 -7z"/>
<path d="M2610 4710 l0 -40 60 0 60 0 0 -190 0 -190 45 0 45 0 2 188 3 187 63
3 63 3 -3 37 -3 37 -167 3 -168 2 0 -40z"/>
<path d="M3017 4743 c-4 -3 -7 -107 -7 -230 l0 -223 45 0 45 0 0 135 c0 74 3
135 8 135 4 0 43 -60 88 -133 l80 -132 47 -3 47 -3 -2 228 -3 228 -40 0 -40 0
-5 -145 -5 -145 -84 140 c-47 77 -89 143 -95 147 -14 10 -70 10 -79 1z"/>
<path d="M3450 4520 l0 -230 160 0 160 0 0 35 0 35 -115 0 -115 0 0 60 0 60
75 0 75 0 0 40 0 40 -75 0 -75 0 0 55 0 55 116 0 115 0 -3 38 -3 37 -157 3
-158 3 0 -231z"/>
<path d="M3895 4731 c-63 -29 -88 -91 -61 -155 17 -41 52 -65 149 -102 80 -31
103 -60 72 -94 -37 -41 -140 -18 -147 33 -2 18 -10 23 -45 25 -42 3 -43 3 -43
-29 0 -41 32 -92 67 -108 41 -19 122 -25 168 -12 23 6 54 25 70 41 25 26 30
40 30 80 0 67 -33 100 -142 141 -99 38 -124 67 -87 103 9 10 33 16 58 16 45 0
68 -16 80 -57 6 -19 15 -23 47 -23 37 0 39 2 39 31 0 101 -142 162 -255 110z"/>
<path d="M4294 4736 c-47 -21 -74 -61 -74 -112 0 -63 40 -105 133 -140 84 -31
107 -49 107 -80 0 -29 -27 -44 -77 -44 -44 0 -83 29 -83 61 0 18 -6 20 -42 17
-38 -3 -43 -6 -46 -28 -4 -33 35 -91 73 -109 48 -23 129 -26 181 -6 78 29 107
112 65 181 -14 23 -39 39 -98 64 -103 42 -123 56 -123 83 0 33 19 47 63 47 51
0 73 -13 86 -50 9 -28 14 -31 48 -28 36 3 38 5 37 36 -3 44 -27 78 -74 102
-46 23 -129 26 -176 6z"/>
<path d="M3170 3938 c-67 -35 -80 -69 -80 -213 0 -144 13 -178 80 -212 87 -45
196 -19 238 56 19 34 22 54 22 156 0 102 -3 122 -22 156 -42 75 -151 101 -238
57z m149 -84 c18 -23 21 -41 21 -132 0 -95 -2 -108 -22 -129 -28 -30 -89 -32
-118 -3 -18 18 -20 33 -20 132 0 101 2 114 22 135 31 33 90 32 117 -3z"/>
<path d="M1390 3725 l0 -225 45 0 44 0 3 93 3 92 33 3 c32 3 33 2 77 -92 l44
-96 46 0 c25 0 45 2 45 5 0 3 -18 41 -40 85 -22 44 -40 84 -40 90 0 6 16 24
35 41 60 53 57 150 -6 203 -29 25 -36 26 -160 26 l-129 0 0 -225z m214 143
c29 -13 40 -39 32 -73 -7 -28 -21 -33 -96 -37 l-55 -2 -3 48 c-2 27 -1 55 2
62 7 17 84 19 120 2z"/>
<path d="M1861 3731 c-39 -121 -71 -222 -71 -225 0 -3 22 -6 49 -6 48 0 49 1
55 35 l7 36 87 -3 86 -3 10 -32 c8 -32 11 -33 58 -33 46 0 49 1 43 23 -4 12
-36 113 -72 225 l-65 202 -58 0 -59 0 -70 -219z m158 19 c12 -41 24 -83 27
-92 5 -16 -2 -18 -56 -18 -55 0 -62 2 -58 18 31 111 54 180 59 174 4 -4 16
-41 28 -82z"/>
<path d="M2250 3725 l0 -225 45 0 44 0 3 143 3 142 86 -140 86 -140 46 -3 47
-3 0 225 0 226 -45 0 -44 0 -3 -142 -3 -143 -85 142 -85 142 -47 1 -48 0 0
-225z"/>
<path d="M2690 3725 l0 -225 119 0 c106 0 121 2 152 23 52 35 59 57 59 202 0
113 -3 134 -20 163 -30 49 -72 62 -200 62 l-110 0 0 -225z m220 130 c18 -16
20 -31 20 -131 0 -110 -1 -113 -26 -133 -19 -15 -41 -21 -75 -21 l-49 0 0 156
0 156 55 -4 c34 -3 62 -12 75 -23z"/>
<path d="M3500 3725 l0 -225 50 0 50 0 0 148 1 147 36 -57 c49 -79 74 -79 125
0 l38 57 0 -147 0 -148 45 0 45 0 0 225 0 225 -44 0 c-44 0 -45 0 -92 -75 -26
-41 -51 -75 -55 -75 -4 0 -28 34 -54 75 l-46 75 -50 0 -49 0 0 -225z"/>
<path d="M3980 3725 l0 -225 45 0 45 0 0 225 0 225 -45 0 -45 0 0 -225z"/>
<path d="M4130 3915 l0 -35 105 0 c69 0 105 -4 105 -11 0 -6 -47 -74 -105
-152 -90 -121 -105 -146 -105 -179 l0 -38 160 0 160 0 0 35 0 35 -106 0 c-87
0 -105 3 -101 14 3 8 51 75 106 149 89 120 101 140 101 176 l0 41 -160 0 -160
0 0 -35z"/>
<path d="M4520 3725 l0 -225 160 0 160 0 0 35 0 35 -115 0 -115 0 0 60 0 60
76 0 75 0 -3 38 -3 37 -72 3 -73 3 0 54 0 55 115 0 115 0 0 35 0 35 -160 0
-160 0 0 -225z"/>
<path d="M4900 3725 l0 -225 50 0 50 0 0 96 0 95 31 -3 c36 -3 36 -4 84 -110
l34 -78 47 0 c25 0 44 4 42 8 -1 5 -20 47 -42 94 l-38 86 37 34 c64 58 58 152
-11 207 -24 19 -40 21 -155 21 l-129 0 0 -225z m236 130 c8 -10 14 -29 14 -41
0 -39 -26 -54 -91 -54 l-59 0 0 61 0 61 61 -4 c45 -3 65 -10 75 -23z"/>
<path d="M820 3060 c0 -33 4 -60 10 -60 6 0 10 11 10 24 0 19 6 25 26 28 63 7
51 68 -12 68 l-34 0 0 -60z m73 36 c7 -17 -11 -36 -35 -36 -13 0 -18 8 -18 25
0 20 5 25 24 25 13 0 26 -6 29 -14z"/>
<path d="M2110 3110 c0 -5 5 -10 10 -10 6 0 10 5 10 10 0 6 -4 10 -10 10 -5 0
-10 -4 -10 -10z"/>
<path d="M2760 3061 c0 -33 5 -63 10 -66 6 -4 10 18 10 59 0 37 -4 66 -10 66
-6 0 -10 -26 -10 -59z"/>
<path d="M3060 3100 c0 -14 -5 -18 -16 -13 -11 4 -22 -1 -30 -12 -27 -37 -12
-76 30 -80 26 -3 26 -2 26 61 0 35 -2 64 -5 64 -3 0 -5 -9 -5 -20z m-2 -58 c3
-26 0 -32 -16 -32 -25 0 -35 25 -21 51 15 28 33 18 37 -19z"/>
<path d="M3775 3110 c3 -5 8 -10 11 -10 2 0 4 5 4 10 0 6 -5 10 -11 10 -5 0
-7 -4 -4 -10z"/>
<path d="M2820 3062 c0 -46 12 -72 34 -72 6 0 5 5 -2 12 -15 15 -16 78 -1 78
6 0 4 7 -5 15 -23 23 -26 19 -26 -33z"/>
<path d="M4307 3097 c-9 -24 8 -100 23 -105 12 -4 13 -2 3 9 -15 15 -17 76 -4
81 5 2 3 8 -4 15 -10 9 -14 9 -18 0z"/>
<path d="M4599 3098 c-3 -38 4 -85 14 -95 11 -12 13 11 7 100 0 12 -20 8 -21
-5z"/>
<path d="M4900 3062 c0 -46 12 -72 34 -72 6 0 5 5 -2 12 -15 15 -16 78 -1 78
6 0 4 7 -5 15 -23 23 -26 19 -26 -33z"/>
<path d="M953 3083 c-7 -2 -13 -9 -13 -15 0 -6 6 -5 16 2 12 11 18 11 30 -2
14 -14 12 -16 -16 -21 -26 -6 -31 -11 -28 -29 2 -18 9 -23 36 -23 30 -1 32 1
32 35 0 49 -20 68 -57 53z m37 -63 c0 -5 -9 -10 -20 -10 -11 0 -20 5 -20 10 0
6 9 10 20 10 11 0 20 -4 20 -10z"/>
<path d="M1050 3040 c0 -29 2 -51 4 -49 8 8 10 88 3 95 -4 4 -7 -17 -7 -46z"/>
<path d="M1143 3083 c-7 -2 -13 -9 -13 -15 0 -6 6 -6 15 2 15 12 35 6 35 -11
0 -5 -6 -9 -13 -9 -7 0 -22 -6 -33 -14 -16 -12 -17 -17 -6 -28 7 -7 24 -13 37
-13 23 -1 25 3 25 41 0 29 -5 44 -16 48 -9 3 -16 6 -17 5 -1 0 -8 -3 -14 -6z
m37 -63 c0 -5 -9 -10 -20 -10 -11 0 -20 5 -20 10 0 6 9 10 20 10 11 0 20 -4
20 -10z"/>
<path d="M1361 3081 c-33 -21 -4 -99 32 -85 26 10 20 22 -8 16 -22 -4 -25 -1
-25 26 0 34 16 50 33 33 17 -17 31 -13 17 4 -14 17 -29 19 -49 6z"/>
<path d="M1471 3081 c-18 -11 -17 -71 1 -82 18 -12 24 -11 42 7 22 21 20 61
-3 74 -23 12 -22 12 -40 1z m42 -23 c14 -22 1 -48 -23 -48 -15 0 -20 7 -20 28
0 44 22 54 43 20z"/>
<path d="M1572 3035 c1 -47 2 -47 5 -10 3 22 8 44 13 49 15 15 39 -13 43 -52
l4 -37 1 41 c2 46 -12 64 -46 61 -20 -1 -22 -6 -20 -52z"/>
<path d="M1687 3083 c-14 -14 -6 -34 18 -45 14 -6 25 -16 25 -21 0 -5 -11 -7
-25 -5 -27 6 -34 -6 -10 -16 42 -16 61 27 20 46 -14 6 -25 15 -25 19 0 15 21
21 35 9 9 -7 15 -8 15 -2 0 16 -40 28 -53 15z"/>
<path d="M1792 3078 c-31 -31 -2 -99 35 -82 15 6 13 8 -9 12 -35 4 -37 22 -3
22 30 0 43 24 25 45 -15 18 -32 19 -48 3z m38 -13 c11 -13 8 -15 -14 -15 -25
0 -33 10 -19 23 10 11 19 8 33 -8z"/>
<path d="M1902 3078 c-30 -30 -4 -96 32 -82 9 3 16 1 16 -5 0 -7 -10 -16 -22
-21 -14 -5 -17 -9 -7 -9 8 -1 20 4 27 11 13 13 17 108 4 108 -4 0 -7 -15 -7
-32 0 -27 -4 -34 -22 -36 -19 -3 -23 1 -23 24 0 15 8 33 18 40 9 7 12 14 7 14
-6 0 -16 -5 -23 -12z"/>
<path d="M2001 3053 c-1 -44 9 -58 47 -58 20 -1 22 3 21 50 l-2 50 -6 -40 c-5
-31 -10 -40 -26 -40 -16 0 -21 9 -26 40 l-6 40 -2 -42z"/>
<path d="M2170 3039 c0 -29 3 -50 6 -46 10 10 13 86 3 93 -5 3 -9 -18 -9 -47z"/>
<path d="M2372 3035 c1 -46 2 -47 5 -10 2 22 11 45 20 52 13 10 13 12 -6 10
-19 -1 -21 -7 -19 -52z"/>
<path d="M2456 3074 c-20 -20 -20 -48 0 -68 18 -18 24 -19 44 -6 12 8 9 10
-12 10 -15 0 -30 5 -33 10 -4 6 7 10 24 10 26 0 31 4 31 24 0 13 -7 27 -16 30
-21 8 -20 8 -38 -10z m42 -12 c2 -7 -7 -12 -23 -12 -24 0 -26 2 -15 15 14 17
31 16 38 -3z"/>
<path d="M2559 3074 c-11 -14 -10 -18 6 -30 10 -8 22 -14 27 -14 4 0 8 -5 8
-11 0 -7 -11 -9 -26 -6 -24 4 -25 3 -10 -12 12 -12 21 -13 33 -5 28 17 26 32
-7 49 -32 17 -31 40 1 32 11 -3 17 -1 13 4 -8 14 -30 11 -45 -7z"/>
<path d="M2650 3051 c0 -42 11 -56 48 -56 20 -1 22 3 20 50 -1 50 -2 50 -5 8
-3 -34 -8 -43 -23 -43 -20 0 -37 40 -26 59 4 5 2 12 -4 16 -6 4 -10 -9 -10
-34z"/>
<path d="M2913 3083 c-7 -2 -13 -9 -13 -15 0 -6 6 -6 15 2 15 12 35 6 35 -11
0 -5 -6 -9 -13 -9 -7 0 -22 -6 -32 -14 -16 -12 -17 -16 -6 -30 7 -8 24 -15 37
-14 21 2 24 7 24 44 0 29 -5 44 -16 48 -9 3 -16 6 -17 5 -1 0 -8 -3 -14 -6z
m37 -63 c0 -5 -9 -10 -20 -10 -11 0 -20 5 -20 10 0 6 9 10 20 10 11 0 20 -4
20 -10z"/>
<path d="M3133 3082 c-23 -14 -21 -77 3 -86 26 -10 54 12 54 42 0 42 -27 63
-57 44z m40 -24 c14 -22 1 -48 -23 -48 -15 0 -20 7 -20 28 0 44 22 54 43 20z"/>
<path d="M3243 3083 c-21 -8 -15 -33 12 -45 14 -6 25 -16 25 -21 0 -5 -11 -7
-25 -5 -30 6 -34 -8 -5 -17 43 -14 56 28 15 47 -14 6 -25 15 -25 19 0 16 21
20 37 7 14 -11 15 -11 11 2 -5 16 -25 22 -45 13z"/>
<path d="M3456 3074 c-9 -8 -16 -24 -16 -34 0 -18 25 -50 38 -50 4 0 14 5 22
10 12 8 9 10 -12 10 -36 0 -36 18 -1 22 32 4 39 20 18 42 -20 20 -29 20 -49 0z
m42 -12 c2 -7 -6 -12 -17 -12 -21 0 -27 11 -14 24 9 9 26 2 31 -12z"/>
<path d="M3563 3083 c-21 -8 -15 -33 12 -45 33 -15 32 -32 -1 -25 -24 4 -25 3
-10 -12 12 -12 21 -13 33 -5 28 17 26 32 -7 49 -33 17 -32 40 2 29 14 -4 18
-2 14 5 -7 11 -22 13 -43 4z"/>
<path d="M3830 3040 c0 -29 2 -51 4 -49 8 8 10 88 3 95 -4 4 -7 -17 -7 -46z"/>
<path d="M3868 3078 c7 -7 12 -27 12 -44 0 -18 5 -36 10 -39 14 -9 13 68 -2
83 -7 7 -16 12 -22 12 -6 0 -5 -5 2 -12z"/>
<path d="M3923 3078 c9 -7 18 -31 20 -53 l4 -40 1 46 c2 35 -2 48 -14 53 -25
10 -29 7 -11 -6z"/>
<path d="M4001 3020 c1 -36 4 -55 6 -43 3 13 10 20 17 17 16 -6 46 22 46 42 0
31 -20 54 -45 52 -24 -2 -25 -5 -24 -68z m49 41 c13 -26 3 -51 -21 -51 -14 0
-19 7 -19 28 0 45 21 57 40 23z"/>
<path d="M4116 3074 c-9 -8 -16 -24 -16 -34 0 -19 25 -50 40 -50 15 0 40 31
40 50 0 19 -25 50 -40 50 -5 0 -16 -7 -24 -16z m44 -13 c13 -25 3 -51 -20 -51
-10 0 -21 7 -24 16 -7 17 10 54 24 54 5 0 14 -9 20 -19z"/>
<path d="M4233 3083 c-8 -3 -12 -22 -11 -51 l1 -47 4 40 c2 22 11 46 20 53 17
12 9 15 -14 5z"/>
<path d="M4390 3080 c-12 -8 -10 -10 9 -8 13 2 26 -3 28 -9 3 -7 -2 -13 -10
-13 -9 0 -23 -7 -32 -16 -21 -22 -2 -46 34 -41 21 3 26 9 26 33 1 55 -21 76
-55 54z m40 -60 c0 -5 -9 -10 -20 -10 -11 0 -20 5 -20 10 0 6 9 10 20 10 11 0
20 -4 20 -10z"/>
<path d="M4492 3035 l1 -50 6 45 c8 61 35 63 39 2 3 -44 22 -49 22 -6 0 40
-18 64 -45 62 -23 -2 -25 -6 -23 -53z"/>
<path d="M4682 3078 c-7 -7 -12 -24 -12 -40 0 -30 28 -52 54 -42 25 9 19 22
-8 17 -13 -3 -27 0 -30 6 -5 7 4 11 23 11 23 0 31 5 31 18 0 20 -18 42 -35 42
-6 0 -16 -5 -23 -12z m46 -16 c2 -7 -7 -12 -23 -12 -24 0 -26 2 -15 15 14 17
31 16 38 -3z"/>
<path d="M4986 3074 c-9 -8 -16 -24 -16 -34 0 -18 25 -50 38 -50 4 0 14 5 22
10 12 8 9 10 -12 10 -36 0 -36 18 -1 22 32 4 39 20 18 42 -20 20 -29 20 -49 0z
m42 -12 c2 -7 -6 -12 -17 -12 -21 0 -27 11 -14 24 9 9 26 2 31 -12z"/>
<path d="M5092 3036 l1 -51 6 45 c4 31 11 45 21 45 10 0 17 -14 21 -45 l7 -45
-2 50 c-1 47 -2 50 -28 51 -27 1 -28 0 -26 -50z"/>
<path d="M5206 3074 c-9 -8 -16 -24 -16 -34 0 -18 25 -50 38 -50 4 0 14 5 22
10 12 8 9 10 -12 10 -15 0 -30 5 -33 10 -4 6 6 10 24 10 16 0 33 5 36 10 4 6
-9 10 -32 10 -35 0 -36 1 -21 17 14 13 20 14 32 3 9 -7 16 -8 16 -2 0 5 -7 13
-16 16 -21 8 -20 8 -38 -10z"/>
<path d="M5312 3040 c1 -40 2 -41 5 -10 2 19 11 40 20 47 13 10 13 12 -6 10
-18 -1 -21 -7 -19 -47z"/>
<path d="M5502 3054 c-2 -47 13 -66 46 -57 18 4 22 12 21 47 l-2 41 -6 -35
c-4 -26 -12 -36 -28 -38 -19 -3 -22 2 -26 40 l-4 43 -1 -41z"/>
<path d="M5611 3040 l2 -55 7 45 c4 25 4 49 -1 55 -5 5 -8 -13 -8 -45z"/>
<path d="M5653 3079 c11 -7 18 -24 19 -52 l1 -42 4 38 c4 38 -9 67 -31 67 -6
0 -3 -5 7 -11z"/>
<path d="M5730 3079 c-12 -8 -11 -9 6 -4 12 3 26 0 33 -8 9 -12 5 -16 -20 -21
-25 -5 -30 -10 -27 -28 2 -18 9 -23 36 -23 30 -1 32 1 32 35 0 52 -26 73 -60
49z m40 -59 c0 -5 -9 -10 -20 -10 -11 0 -20 5 -20 10 0 6 9 10 20 10 11 0 20
-4 20 -10z"/>
<path d="M2110 3040 c0 -22 5 -40 10 -40 6 0 10 18 10 40 0 22 -4 40 -10 40
-5 0 -10 -18 -10 -40z"/>
<path d="M3770 3040 c0 -22 5 -40 10 -40 6 0 10 18 10 40 0 22 -4 40 -10 40
-5 0 -10 -18 -10 -40z"/>
<path d="M1863 2815 c0 -38 2 -53 4 -32 2 20 2 52 0 70 -2 17 -4 1 -4 -38z"/>
<path d="M5140 2816 c0 -36 5 -68 10 -71 6 -4 10 7 10 24 0 24 4 31 20 31 11
0 20 5 20 10 0 6 -9 10 -20 10 -34 0 -23 28 13 32 46 4 39 22 -10 26 l-43 3 0
-65z"/>
<path d="M821 2814 c-1 -53 2 -62 19 -67 31 -8 52 14 48 53 -2 30 -7 35 -30
38 -15 2 -29 11 -31 20 -3 9 -5 -11 -6 -44z m54 -19 c0 -19 -6 -31 -16 -33
-20 -4 -30 18 -22 48 9 32 38 21 38 -15z"/>
<path d="M2860 2856 c0 -9 -12 -16 -27 -18 -24 -3 -29 -8 -31 -38 -4 -39 17
-61 48 -53 17 5 20 14 20 64 0 33 -2 59 -5 59 -3 0 -5 -6 -5 -14z m-5 -45 c8
-26 -4 -51 -26 -51 -14 0 -19 7 -19 28 0 16 3 32 7 35 12 13 32 7 38 -12z"/>
<path d="M5250 2860 c0 -5 7 -10 15 -10 8 0 15 5 15 10 0 6 -7 10 -15 10 -8 0
-15 -4 -15 -10z"/>
<path d="M5428 2848 c-9 -23 4 -87 18 -99 21 -17 29 -3 14 26 -11 20 -11 27 0
40 10 12 10 18 0 30 -15 18 -26 19 -32 3z"/>
<path d="M930 2801 c0 -43 18 -62 51 -54 15 4 19 14 18 52 l-2 46 -6 -40 c-4
-27 -12 -41 -23 -43 -14 -3 -18 4 -18 32 0 19 -4 38 -10 41 -6 4 -10 -10 -10
-34z"/>
<path d="M1052 2828 c-28 -28 1 -97 35 -84 8 3 17 6 19 6 2 0 4 4 4 8 0 4 -10
8 -22 7 -34 0 -38 19 -5 23 23 3 28 8 25 25 -3 25 -37 34 -56 15z m46 -15 c2
-8 -6 -13 -22 -13 -19 0 -24 4 -19 15 6 18 34 16 41 -2z"/>
<path d="M1163 2795 c0 -27 2 -38 4 -22 2 15 2 37 0 50 -2 12 -4 0 -4 -28z"/>
<path d="M1192 2828 c9 -7 19 -29 21 -48 3 -26 4 -24 3 10 -1 36 -5 45 -21 48
-18 4 -19 3 -3 -10z"/>
<path d="M1276 2832 c-3 -5 4 -8 16 -8 12 1 23 -5 25 -11 3 -8 -4 -13 -15 -13
-11 0 -26 -7 -33 -16 -11 -14 -11 -18 4 -29 10 -7 27 -11 38 -8 17 5 20 13 17
47 -2 33 -7 42 -25 44 -11 2 -24 -1 -27 -6z m44 -57 c0 -8 -9 -15 -20 -15 -20
0 -26 11 -13 23 12 13 33 7 33 -8z"/>
<path d="M1650 2825 c-10 -12 -7 -18 19 -32 40 -23 40 -37 -1 -29 -30 5 -31 4
-14 -9 13 -10 24 -11 37 -4 27 14 24 26 -11 44 -35 18 -30 40 7 30 16 -4 22
-2 18 5 -9 15 -41 12 -55 -5z"/>
<path d="M1757 2833 c-4 -3 -7 -21 -7 -39 0 -36 26 -59 50 -44 10 6 7 9 -10
12 -37 5 -37 28 -1 28 32 0 41 16 19 38 -13 13 -41 16 -51 5z m51 -20 c2 -8
-6 -13 -22 -13 -25 0 -33 10 -19 24 10 10 36 3 41 -11z"/>
<path d="M1922 2828 c-31 -31 1 -98 39 -78 24 14 24 16 -3 15 -34 0 -38 19 -5
23 23 3 28 8 25 25 -3 25 -37 34 -56 15z m46 -15 c2 -8 -6 -13 -22 -13 -19 0
-24 4 -19 15 6 18 34 16 41 -2z"/>
<path d="M2032 2828 c-31 -31 1 -98 39 -78 25 14 24 16 -8 15 -30 0 -42 27
-23 55 8 13 13 13 31 2 18 -11 20 -11 17 0 -6 18 -40 22 -56 6z"/>
<path d="M2142 2828 c-35 -35 4 -103 42 -75 16 12 14 13 -11 12 -23 0 -29 5
-31 28 -4 31 20 46 43 27 9 -7 15 -8 15 -2 0 9 -22 22 -39 22 -4 0 -12 -5 -19
-12z"/>
<path d="M2243 2795 c0 -27 2 -38 4 -22 2 15 2 37 0 50 -2 12 -4 0 -4 -28z"/>
<path d="M2313 2833 c-20 -8 -16 -71 5 -82 26 -14 52 5 52 37 0 42 -23 59 -57
45z m42 -38 c0 -23 -4 -30 -20 -30 -21 0 -31 25 -21 51 11 28 41 12 41 -21z"/>
<path d="M2411 2791 l2 -46 6 40 c5 31 10 40 26 40 16 0 21 -9 26 -45 l7 -45
-2 50 c-1 49 -1 50 -33 51 -33 1 -33 1 -32 -45z"/>
<path d="M2917 2833 c-4 -3 -7 -21 -7 -39 0 -34 22 -56 48 -47 20 7 14 20 -9
19 -12 -1 -24 5 -26 12 -3 8 6 12 26 12 32 0 41 16 19 38 -13 13 -41 16 -51 5z
m51 -20 c2 -8 -6 -13 -22 -13 -25 0 -33 10 -19 24 10 10 36 3 41 -11z"/>
<path d="M3302 2828 c-17 -17 -15 -53 4 -72 19 -19 28 -20 42 -3 8 10 6 13
-11 12 -33 0 -36 20 -4 23 23 3 28 8 25 25 -3 25 -37 34 -56 15z m46 -15 c2
-8 -6 -13 -22 -13 -19 0 -24 4 -19 15 6 18 34 16 41 -2z"/>
<path d="M3412 2797 c-1 -27 -7 -58 -13 -70 -11 -20 -10 -21 5 -6 13 12 16 29
13 70 l-3 54 -2 -48z"/>
<path d="M3472 2828 c-31 -31 1 -98 39 -78 24 14 24 16 -3 15 -34 0 -38 19 -5
23 23 3 28 8 25 25 -3 25 -37 34 -56 15z m46 -15 c2 -8 -6 -13 -22 -13 -19 0
-24 4 -19 15 6 18 34 16 41 -2z"/>
<path d="M3570 2795 c0 -25 5 -45 10 -45 6 0 10 20 10 45 0 25 -4 45 -10 45
-5 0 -10 -20 -10 -45z"/>
<path d="M3662 2828 c-35 -35 4 -103 42 -75 16 12 14 13 -11 12 -23 0 -29 5
-31 28 -4 31 20 46 43 27 9 -7 15 -8 15 -2 0 9 -22 22 -39 22 -4 0 -12 -5 -19
-12z"/>
<path d="M3763 2795 c0 -27 2 -38 4 -22 2 15 2 37 0 50 -2 12 -4 0 -4 -28z"/>
<path d="M3833 2833 c-7 -2 -13 -20 -13 -38 0 -42 27 -62 56 -40 18 13 17 14
-11 12 -26 -2 -30 2 -33 26 -4 32 20 46 46 26 15 -13 16 -12 3 4 -14 17 -25
20 -48 10z"/>
<path d="M3933 2795 c0 -27 2 -38 4 -22 2 15 2 37 0 50 -2 12 -4 0 -4 -28z"/>
<path d="M3992 2828 c-17 -17 -15 -53 4 -72 20 -21 27 -20 49 4 36 40 -15 106
-53 68z m46 -14 c13 -24 3 -54 -18 -54 -21 0 -33 25 -25 51 8 23 31 25 43 3z"/>
<path d="M4107 2833 c-14 -14 -6 -34 18 -45 14 -6 25 -16 25 -21 0 -5 -11 -7
-25 -5 -28 6 -34 -6 -9 -16 19 -7 44 10 44 30 0 8 -11 16 -25 20 -14 3 -25 13
-25 21 0 11 7 13 26 9 17 -5 23 -3 19 4 -7 11 -38 14 -48 3z"/>
<path d="M4542 2828 c-28 -28 1 -97 35 -84 8 3 17 6 19 6 2 0 4 4 4 9 0 4 -11
6 -24 4 -18 -4 -26 0 -30 15 -13 41 15 66 43 40 11 -11 13 -10 9 2 -6 19 -40
24 -56 8z"/>
<path d="M4652 2828 c-35 -35 4 -103 42 -75 25 19 18 81 -9 85 -11 1 -26 -3
-33 -10z m46 -36 c3 -30 1 -33 -20 -30 -23 3 -34 27 -24 54 11 28 41 11 44
-24z"/>
<path d="M4763 2795 c0 -27 2 -38 4 -22 2 15 2 37 0 50 -2 12 -4 0 -4 -28z"/>
<path d="M4792 2828 c9 -7 19 -29 21 -48 3 -26 4 -24 3 10 -1 36 -5 45 -21 48
-18 4 -19 3 -3 -10z"/>
<path d="M5252 2794 c2 -27 8 -48 13 -46 15 3 12 85 -3 90 -10 3 -12 -8 -10
-44z"/>
<path d="M5312 2793 c4 -57 22 -64 26 -10 4 49 25 44 33 -9 7 -48 22 -24 17
28 -3 30 -6 33 -41 36 l-38 3 3 -48z"/>
<path d="M5510 2821 c-5 -11 -10 -26 -10 -35 0 -21 37 -45 61 -39 28 8 23 23
-8 24 l-28 1 30 7 c23 5 29 11 27 26 -7 38 -54 48 -72 16z m45 -11 c3 -5 -1
-10 -9 -10 -9 0 -16 5 -16 10 0 6 4 10 9 10 6 0 13 -4 16 -10z"/>
<path d="M5627 2833 c-13 -12 -7 -43 7 -43 8 0 18 -5 22 -12 5 -8 0 -9 -14 -6
-14 4 -22 2 -22 -7 0 -17 33 -25 54 -13 24 13 19 37 -9 44 -14 3 -25 10 -25
15 0 5 12 6 28 3 24 -7 26 -6 13 9 -14 17 -42 22 -54 10z"/>
<path d="M5727 2834 c-14 -15 -6 -34 21 -49 l27 -16 -27 6 c-31 6 -38 -9 -12
-23 24 -13 54 -3 54 19 0 11 -4 19 -8 19 -5 0 -17 7 -28 16 -18 15 -18 15 9 9
21 -4 28 -2 25 7 -5 14 -50 23 -61 12z"/>
<path d="M820 2566 c0 -37 4 -66 10 -66 6 0 10 11 10 25 0 14 5 25 10 25 6 0
16 -11 22 -25 6 -14 17 -25 25 -25 11 0 11 4 2 21 -8 17 -8 27 2 46 18 34 1
57 -45 61 l-36 3 0 -65z m60 29 c10 -12 9 -16 -5 -21 -19 -8 -40 9 -31 25 10
15 21 14 36 -4z"/>
<path d="M1220 2610 c0 -13 -7 -20 -18 -20 -24 0 -42 -19 -42 -45 0 -29 19
-45 52 -45 28 0 28 0 28 65 0 37 -4 65 -10 65 -5 0 -10 -9 -10 -20z m0 -65 c0
-16 -6 -25 -15 -25 -9 0 -15 9 -15 25 0 16 6 25 15 25 9 0 15 -9 15 -25z"/>
<path d="M1495 2619 c-10 -15 3 -25 16 -12 7 7 7 13 1 17 -6 3 -14 1 -17 -5z"/>
<path d="M2279 2609 c-3 -7 -4 -35 -1 -61 3 -37 8 -48 21 -47 10 0 11 2 4 6
-7 2 -13 20 -13 39 0 20 5 34 13 34 8 0 9 3 1 8 -6 4 -13 14 -16 21 -4 13 -5
13 -9 0z"/>
<path d="M4189 2609 c-3 -7 -4 -35 -1 -61 3 -37 8 -48 21 -47 10 0 11 2 4 6
-7 2 -13 20 -13 39 0 20 5 34 13 34 8 0 9 3 1 8 -6 4 -13 14 -16 21 -4 13 -5
13 -9 0z"/>
<path d="M945 2581 c-7 -12 0 -14 28 -12 25 3 21 -17 -5 -21 -15 -2 -23 -10
-23 -23 0 -16 8 -21 38 -23 l38 -3 -3 43 c-3 40 -5 43 -35 46 -17 2 -34 -2
-38 -7z m45 -51 c0 -5 -7 -10 -16 -10 -8 0 -12 5 -9 10 3 6 10 10 16 10 5 0 9
-4 9 -10z"/>
<path d="M1050 2546 c0 -34 4 -46 15 -46 11 0 15 11 15 36 0 45 24 42 28 -4 5
-48 24 -38 20 11 -3 41 -4 42 -40 45 l-38 3 0 -45z"/>
<path d="M1292 2578 c-28 -28 -3 -84 34 -76 43 8 44 88 1 88 -13 0 -28 -5 -35
-12z m45 -24 c8 -21 -13 -42 -28 -27 -13 13 -5 43 11 43 6 0 13 -7 17 -16z"/>
<path d="M1390 2580 c0 -5 9 -10 21 -10 l20 0 -20 -26 c-29 -37 -26 -44 14
-44 19 0 35 5 35 10 0 6 -10 10 -22 10 l-21 0 21 23 c31 33 28 47 -13 47 -19
0 -35 -4 -35 -10z"/>
<path d="M1490 2545 c0 -33 4 -45 15 -45 11 0 15 12 15 45 0 33 -4 45 -15 45
-11 0 -15 -12 -15 -45z"/>
<path d="M1550 2545 c0 -33 4 -45 15 -45 11 0 15 11 15 36 0 45 24 42 28 -4 4
-43 22 -41 22 3 0 24 5 35 15 35 10 0 15 -11 15 -35 0 -19 5 -35 11 -35 6 0 9
17 7 43 l-3 42 -62 3 -63 2 0 -45z"/>
<path d="M1719 2569 c-16 -31 3 -69 35 -69 14 0 28 5 31 10 4 6 -5 10 -19 10
-14 0 -26 5 -26 10 0 6 14 10 30 10 33 0 35 3 20 31 -14 26 -56 25 -71 -2z
m51 -9 c0 -5 -7 -10 -15 -10 -8 0 -15 5 -15 10 0 6 7 10 15 10 8 0 15 -4 15
-10z"/>
<path d="M1830 2545 c0 -25 5 -45 10 -45 6 0 10 14 10 30 0 18 6 33 15 36 24
9 17 24 -10 24 -23 0 -25 -4 -25 -45z"/>
<path d="M1980 2546 c0 -25 5 -46 10 -46 6 0 10 18 10 41 0 33 3 40 18 37 11
-2 19 -16 23 -43 l7 -40 -2 45 c-1 43 -2 45 -33 48 -33 3 -33 3 -33 -42z"/>
<path d="M2094 2564 c-9 -35 7 -59 37 -59 21 0 24 4 24 40 0 36 -3 40 -27 43
-23 3 -29 -2 -34 -24z m51 -19 c0 -23 -4 -30 -20 -30 -21 0 -31 25 -21 51 11
28 41 12 41 -21z"/>
<path d="M2354 2576 c-3 -8 -4 -27 -2 -43 2 -22 9 -29 31 -31 15 -2 27 1 27 6
0 5 -10 8 -21 8 -12 -1 -24 5 -26 12 -3 8 6 12 26 12 31 0 36 6 25 34 -8 20
-53 21 -60 2z m50 -11 c4 -11 -1 -15 -19 -15 -24 0 -32 10 -18 23 11 12 31 8
37 -8z"/>
<path d="M2461 2543 l2 -48 6 40 c4 27 12 41 24 43 14 3 17 -4 17 -37 0 -23 5
-41 10 -41 11 0 14 49 4 74 -4 10 -18 16 -35 16 -28 0 -29 -1 -28 -47z"/>
<path d="M2574 2576 c-3 -8 -4 -27 -2 -43 2 -22 9 -29 31 -31 15 -2 27 1 27 6
0 5 -10 8 -21 8 -12 -1 -24 5 -26 12 -3 8 6 12 26 12 31 0 36 6 25 34 -8 20
-53 21 -60 2z m54 -13 c2 -8 -6 -13 -22 -13 -17 0 -26 5 -26 16 0 19 41 16 48
-3z"/>
<path d="M2677 2576 c-6 -15 6 -29 36 -39 24 -9 11 -30 -14 -24 -11 3 -19 1
-19 -5 0 -5 12 -8 27 -6 37 4 43 35 9 44 -35 8 -35 38 -1 32 13 -3 22 -1 19 3
-9 14 -51 10 -57 -5z"/>
<path d="M2849 2569 c-15 -29 3 -69 31 -69 11 0 20 -7 20 -15 0 -8 5 -15 10
-15 6 0 10 27 10 60 0 60 0 60 -30 60 -20 0 -33 -7 -41 -21z m49 -21 c-2 -21
-8 -33 -18 -33 -10 0 -16 12 -18 33 -3 27 0 32 18 32 18 0 21 -5 18 -32z"/>
<path d="M2964 2550 c1 -43 2 -45 34 -48 32 -3 32 -3 32 42 0 25 -4 46 -10 46
-5 0 -10 -18 -10 -41 0 -33 -3 -40 -17 -37 -12 2 -20 16 -24 43 l-7 40 2 -45z"/>
<path d="M3074 2576 c-3 -8 -4 -27 -2 -43 2 -22 9 -29 31 -31 15 -2 27 1 27 6
0 5 -10 8 -21 8 -12 -1 -24 5 -26 12 -3 8 6 12 26 12 31 0 36 6 25 34 -8 20
-53 21 -60 2z m54 -13 c2 -8 -6 -13 -22 -13 -25 0 -33 10 -19 24 10 10 36 3
41 -11z"/>
<path d="M3251 2528 c1 -35 3 -55 6 -46 2 9 14 18 25 20 28 4 42 29 34 61 -5
22 -12 27 -36 27 l-30 0 1 -62z m54 33 c8 -26 -5 -53 -24 -49 -29 6 -27 68 3
68 8 0 17 -8 21 -19z"/>
<path d="M3362 2543 c1 -40 2 -42 5 -13 2 19 11 41 20 48 15 11 14 12 -5 12
-20 0 -22 -5 -20 -47z"/>
<path d="M3444 2576 c-3 -8 -4 -27 -2 -43 2 -22 9 -29 31 -31 15 -2 27 1 27 6
0 5 -10 8 -21 8 -12 -1 -24 5 -26 12 -3 8 6 12 26 12 31 0 36 6 25 34 -8 20
-53 21 -60 2z m54 -13 c2 -8 -6 -13 -22 -13 -17 0 -26 5 -26 16 0 19 41 16 48
-3z"/>
<path d="M3554 2576 c-3 -8 -4 -27 -2 -43 2 -22 9 -29 30 -31 30 -4 44 23 34
64 -5 17 -13 24 -32 24 -13 0 -27 -6 -30 -14z m51 -31 c0 -23 -4 -30 -20 -30
-21 0 -31 25 -21 51 11 28 41 12 41 -21z"/>
<path d="M3664 2577 c-3 -9 -4 -28 -2 -44 2 -21 9 -29 27 -31 13 -2 28 1 34 7
7 7 1 10 -19 8 -25 -2 -29 2 -32 26 -4 32 20 46 45 26 14 -12 16 -12 11 1 -6
20 -56 26 -64 7z"/>
<path d="M3774 2550 c1 -43 2 -45 34 -48 32 -3 32 -3 32 42 0 25 -4 46 -10 46
-5 0 -10 -18 -10 -41 0 -33 -3 -40 -17 -37 -12 2 -20 16 -24 43 l-7 40 2 -45z"/>
<path d="M3881 2528 c1 -35 3 -55 6 -46 2 9 16 18 31 20 24 3 27 7 27 43 0 38
-2 40 -32 43 l-33 3 1 -63z m54 17 c0 -20 -6 -31 -17 -33 -17 -3 -27 21 -20
51 7 30 37 16 37 -18z"/>
<path d="M3996 2581 c-4 -6 5 -9 20 -8 36 3 43 -21 7 -25 -20 -2 -28 -9 -28
-23 0 -15 8 -21 33 -23 l33 -3 -3 43 c-3 38 -6 43 -30 46 -14 2 -29 -1 -32 -7z
m52 -53 c-5 -15 -48 -24 -48 -10 0 14 12 22 33 22 10 0 17 -5 15 -12z"/>
<path d="M4102 2543 c1 -40 2 -42 5 -13 2 19 11 41 20 48 15 11 14 12 -5 12
-20 0 -22 -5 -20 -47z"/>
<path d="M4264 2576 c-3 -8 -4 -27 -2 -43 2 -21 9 -29 27 -31 13 -2 28 1 34 7
7 7 2 10 -18 8 -15 -1 -30 4 -32 11 -3 8 6 12 26 12 31 0 36 6 25 34 -8 20
-53 21 -60 2z m54 -13 c2 -8 -6 -13 -22 -13 -25 0 -33 10 -19 24 10 10 36 3
41 -11z"/>
<path d="M4441 2523 c1 -38 4 -58 6 -46 2 13 13 23 25 25 28 4 42 29 34 61 -5
22 -12 27 -36 27 l-30 0 1 -67z m54 38 c8 -26 -5 -53 -24 -49 -29 6 -27 68 3
68 8 0 17 -8 21 -19z"/>
<path d="M4549 2569 c-16 -31 4 -71 33 -67 28 4 42 29 34 61 -8 34 -50 37 -67
6z m56 -24 c0 -23 -4 -30 -20 -30 -21 0 -31 25 -21 51 11 28 41 12 41 -21z"/>
<path d="M4662 2543 c1 -40 2 -42 5 -13 2 19 11 41 20 48 15 11 14 12 -5 12
-20 0 -22 -5 -20 -47z"/>
<path d="M4811 2528 c1 -35 3 -55 6 -46 2 9 16 18 31 20 24 3 27 7 27 43 0 38
-2 40 -32 43 l-33 3 1 -63z m54 17 c0 -23 -4 -30 -20 -30 -21 0 -31 25 -21 51
11 28 41 12 41 -21z"/>
<path d="M4924 2576 c-3 -8 -4 -27 -2 -43 2 -21 9 -29 27 -31 13 -2 28 1 34 7
7 7 2 10 -18 8 -15 -1 -30 4 -32 11 -3 8 6 12 26 12 31 0 36 6 25 34 -8 20
-53 21 -60 2z m54 -13 c2 -8 -6 -13 -22 -13 -25 0 -33 10 -19 24 10 10 36 3
41 -11z"/>
<path d="M5031 2543 l2 -48 6 40 c5 31 10 40 26 40 16 0 21 -9 26 -40 l7 -40
-2 45 c-1 43 -2 45 -33 48 l-33 3 1 -48z"/>
<path d="M5147 2583 c-14 -14 -6 -34 18 -43 33 -13 33 -34 -1 -27 -16 3 -22 1
-16 -5 14 -14 46 -6 50 13 1 9 -8 20 -23 27 -32 15 -33 36 0 30 13 -3 22 -1
19 3 -6 11 -38 12 -47 2z"/>
<path d="M5246 2581 c-3 -4 6 -6 19 -3 18 3 25 0 25 -11 0 -9 -10 -17 -22 -19
-15 -2 -24 -11 -26 -25 -3 -20 1 -23 32 -23 33 0 36 2 36 29 0 16 -3 36 -6 45
-6 17 -49 22 -58 7z m44 -56 c0 -8 -9 -15 -20 -15 -11 0 -20 7 -20 15 0 8 9
15 20 15 11 0 20 -7 20 -15z"/>
<path d="M5352 2543 c1 -40 2 -42 5 -13 2 19 11 41 20 48 15 11 14 12 -5 12
-20 0 -22 -5 -20 -47z"/>
<path d="M5502 2578 c-27 -27 -7 -78 29 -78 10 0 20 -8 22 -17 3 -10 5 10 6
45 1 58 0 62 -22 62 -13 0 -28 -5 -35 -12z m43 -33 c0 -33 -28 -47 -39 -19
-10 25 3 56 22 52 11 -2 17 -13 17 -33z"/>
<path d="M5614 2548 c1 -40 3 -43 31 -46 28 -3 30 -1 33 37 1 22 -2 42 -8 46
-6 4 -10 -9 -10 -34 0 -34 -3 -41 -19 -41 -16 0 -21 8 -24 40 l-4 40 1 -42z"/>
<path d="M5724 2576 c-3 -8 -4 -27 -2 -43 2 -22 9 -29 31 -31 15 -2 27 1 27 6
0 5 -10 8 -21 8 -12 -1 -24 5 -26 12 -3 8 6 12 26 12 31 0 36 6 25 34 -8 20
-53 21 -60 2z m54 -13 c2 -8 -6 -13 -22 -13 -25 0 -33 10 -19 24 10 10 36 3
41 -11z"/>
<path d="M930 2370 c0 -5 5 -10 10 -10 6 0 10 5 10 10 0 6 -4 10 -10 10 -5 0
-10 -4 -10 -10z"/>
<path d="M2310 2359 c0 -12 -5 -19 -12 -16 -24 8 -48 -13 -48 -42 0 -33 17
-51 48 -48 20 1 22 6 22 64 0 35 -2 63 -5 63 -3 0 -5 -9 -5 -21z m-5 -64 c0
-23 -4 -30 -20 -30 -21 0 -31 25 -21 51 11 28 41 12 41 -21z"/>
<path d="M2470 2315 l0 -66 33 3 c28 3 32 7 35 36 4 37 -14 66 -35 58 -7 -3
-13 1 -13 9 0 7 -4 17 -10 20 -6 4 -10 -18 -10 -60z m58 -17 c-2 -21 -8 -33
-18 -33 -10 0 -16 12 -18 33 -3 27 0 32 18 32 18 0 21 -5 18 -32z"/>
<path d="M2775 2370 c-3 -5 -1 -10 4 -10 6 0 11 5 11 10 0 6 -2 10 -4 10 -3 0
-8 -4 -11 -10z"/>
<path d="M3400 2370 c0 -5 5 -10 10 -10 6 0 10 5 10 10 0 6 -4 10 -10 10 -5 0
-10 -4 -10 -10z"/>
<path d="M3463 2315 c0 -38 2 -53 4 -32 2 20 2 52 0 70 -2 17 -4 1 -4 -38z"/>
<path d="M3515 2370 c-3 -5 -1 -10 4 -10 6 0 11 5 11 10 0 6 -2 10 -4 10 -3 0
-8 -4 -11 -10z"/>
<path d="M4613 2315 c0 -38 2 -53 4 -32 2 20 2 52 0 70 -2 17 -4 1 -4 -38z"/>
<path d="M1897 2357 c-9 -24 8 -100 23 -105 12 -4 13 -2 3 9 -17 17 -17 66 -1
71 9 3 8 9 -4 21 -12 12 -17 13 -21 4z"/>
<path d="M3320 2322 c0 -52 8 -72 29 -72 13 0 13 2 3 9 -9 5 -13 23 -10 51 2
28 -1 45 -9 47 -9 3 -13 -8 -13 -35z"/>
<path d="M837 2339 c-20 -11 -23 -59 -5 -77 14 -14 44 -16 53 -3 3 6 -7 9 -21
8 -15 -1 -29 4 -31 11 -3 8 6 12 26 12 24 0 31 4 31 20 0 25 -30 41 -53 29z
m41 -26 c2 -8 -5 -13 -17 -13 -21 0 -35 13 -24 24 10 10 36 3 41 -11z"/>
<path d="M1007 2339 c-26 -15 -23 -76 4 -84 12 -4 25 -3 30 2 6 6 1 9 -12 9
-12 -1 -24 5 -26 12 -3 8 6 12 26 12 24 0 31 4 31 20 0 25 -30 41 -53 29z m38
-24 c0 -5 -10 -11 -22 -13 -16 -2 -23 2 -23 13 0 11 7 15 23 13 12 -2 22 -7
22 -13z"/>
<path d="M1118 2342 c-14 -3 -18 -13 -16 -50 1 -40 2 -42 5 -12 2 19 11 41 20
47 19 15 15 21 -9 15z"/>
<path d="M1196 2337 c-26 -19 -18 -81 10 -85 11 -2 27 5 35 15 13 16 12 17 -3
4 -26 -20 -48 -7 -48 29 0 22 5 30 18 30 10 0 23 -5 30 -12 9 -9 12 -9 12 0 0
20 -35 33 -54 19z"/>
<path d="M1354 2325 c-14 -21 -15 -31 -6 -50 12 -26 45 -34 58 -14 4 7 0 9
-14 5 -24 -8 -42 16 -34 46 3 15 11 19 28 15 27 -5 33 8 8 17 -22 9 -22 9 -40
-19z"/>
<path d="M1525 2334 c-32 -32 -2 -96 39 -81 24 9 22 73 -3 87 -15 7 -24 6 -36
-6z m43 -36 c-2 -25 -8 -33 -23 -33 -20 0 -31 25 -21 51 3 8 15 14 26 14 18 0
21 -5 18 -32z"/>
<path d="M1637 2339 c-25 -14 -21 -26 14 -45 23 -12 28 -19 20 -27 -9 -9 -17
-8 -34 2 -20 13 -21 13 -8 -3 18 -21 55 -17 59 6 2 12 -6 21 -22 28 -34 12
-34 34 -1 28 29 -6 32 -2 7 11 -11 6 -24 6 -35 0z"/>
<path d="M1987 2339 c-20 -11 -23 -59 -5 -77 14 -14 44 -16 53 -3 3 6 -7 9
-21 8 -15 -1 -29 4 -31 11 -3 8 6 12 26 12 24 0 31 4 31 20 0 25 -30 41 -53
29z m43 -24 c0 -9 -9 -15 -25 -15 -24 0 -32 10 -18 23 12 13 43 7 43 -8z"/>
<path d="M2377 2339 c-20 -11 -23 -59 -5 -77 14 -14 44 -16 53 -3 3 6 -7 9
-21 8 -15 -1 -29 4 -31 11 -3 8 6 12 26 12 24 0 31 4 31 20 0 25 -30 41 -53
29z m43 -24 c0 -16 -35 -21 -44 -6 -8 12 4 21 26 21 10 0 18 -7 18 -15z"/>
<path d="M2596 2334 c-19 -18 -21 -55 -4 -72 15 -15 45 -16 54 -1 4 7 0 9 -13
5 -12 -4 -25 -1 -33 9 -11 13 -8 15 19 15 23 0 31 5 31 18 0 18 -18 42 -31 42
-4 0 -15 -7 -23 -16z m44 -19 c0 -16 -35 -21 -44 -6 -8 12 4 21 26 21 10 0 18
-7 18 -15z"/>
<path d="M2844 2335 c-18 -13 -17 -14 8 -12 33 2 38 -16 6 -23 -14 -4 -23 -13
-23 -25 0 -15 8 -21 33 -23 31 -3 32 -2 32 37 0 48 -25 69 -56 46z m39 -60
c-6 -18 -34 -16 -41 3 -2 7 6 12 22 12 19 0 24 -4 19 -15z"/>
<path d="M2953 2343 c-23 -9 -15 -42 12 -49 32 -8 27 -30 -6 -26 -17 2 -21 0
-12 -9 15 -15 47 -7 51 14 2 11 -6 20 -22 27 -34 12 -34 34 -1 28 20 -4 23 -3
14 8 -12 15 -16 16 -36 7z"/>
<path d="M3570 2340 c0 -5 9 -10 20 -10 22 0 20 -7 -16 -57 -16 -23 -16 -23
22 -22 30 2 33 3 12 6 l-28 4 25 37 c32 47 31 52 -5 52 -16 0 -30 -4 -30 -10z"/>
<path d="M3683 2343 c-23 -9 -14 -20 12 -15 18 3 25 0 25 -11 0 -10 -11 -17
-27 -19 -20 -2 -28 -9 -28 -23 0 -16 7 -20 33 -21 30 -1 32 1 32 36 0 20 -5
41 -12 48 -13 13 -16 13 -35 5z m37 -62 c0 -6 -5 -13 -10 -16 -15 -9 -43 3
-35 15 8 13 45 13 45 1z"/>
<path d="M3798 2343 c-14 -4 -18 -14 -16 -51 l1 -47 4 43 c3 28 9 42 19 42 8
0 14 5 14 10 0 6 -1 9 -2 9 -2 -1 -11 -3 -20 -6z"/>
<path d="M4294 2325 c-14 -21 -15 -31 -6 -50 12 -26 45 -34 58 -14 4 7 0 9
-14 5 -24 -8 -42 16 -34 46 3 15 11 19 28 15 27 -5 33 8 8 17 -22 9 -22 9 -40
-19z"/>
<path d="M4523 2343 c-19 -7 -16 -20 5 -19 26 1 26 -18 0 -24 -14 -4 -23 -13
-23 -25 0 -16 7 -20 33 -21 31 -1 32 1 32 37 0 39 -21 61 -47 52z m37 -62 c0
-6 -5 -13 -10 -16 -15 -9 -43 3 -35 15 8 13 45 13 45 1z"/>
<path d="M4676 2334 c-19 -18 -20 -38 -6 -65 20 -36 70 -17 70 27 0 22 -24 54
-40 54 -5 0 -16 -7 -24 -16z m49 -25 c8 -24 -16 -55 -34 -45 -6 4 -11 20 -11
37 0 22 5 29 19 29 11 0 23 -9 26 -21z"/>
<path d="M4793 2343 c-22 -8 -14 -39 13 -51 29 -14 22 -36 -9 -28 -14 3 -17 2
-10 -5 16 -16 47 -7 51 14 2 11 -6 20 -22 27 -34 12 -34 34 -1 28 14 -3 25 -4
25 -2 0 8 -36 21 -47 17z"/>
<path d="M5068 2343 c-14 -4 -18 -14 -16 -51 l1 -47 4 43 c3 34 8 42 24 42 16
0 19 -7 19 -40 0 -22 5 -40 10 -40 6 0 10 18 10 40 0 42 -19 60 -52 53z"/>
<path d="M5182 2343 c-22 -8 -33 -40 -22 -67 17 -47 70 -27 70 26 0 28 -24 49
-48 41z m36 -38 c3 -28 -13 -49 -32 -42 -10 4 -16 18 -16 37 0 27 3 31 23 28
13 -2 23 -11 25 -23z"/>
<path d="M5516 2337 c-24 -18 -18 -80 8 -85 10 -2 22 0 27 5 6 6 1 9 -13 9
-19 -1 -24 5 -26 33 -3 33 -3 34 27 28 35 -7 40 -2 12 12 -13 7 -23 6 -35 -2z"/>
<path d="M5616 2334 c-19 -18 -20 -38 -6 -65 21 -37 70 -13 70 35 0 16 -26 46
-40 46 -5 0 -16 -7 -24 -16z m49 -24 c6 -20 -9 -50 -26 -50 -14 0 -29 37 -23
54 9 23 41 20 49 -4z"/>
<path d="M5738 2343 c-14 -4 -18 -14 -16 -51 l1 -47 4 43 c3 34 8 42 24 42 16
0 19 -7 19 -40 0 -22 5 -40 10 -40 16 0 12 67 -6 84 -8 9 -16 15 -17 15 -1 -1
-10 -3 -19 -6z"/>
<path d="M928 2280 c-1 -33 0 -60 5 -60 4 0 7 27 7 60 0 77 -7 77 -12 0z"/>
<path d="M1293 2295 c0 -27 2 -38 4 -22 2 15 2 37 0 50 -2 12 -4 0 -4 -28z"/>
<path d="M1463 2295 c0 -27 2 -38 4 -22 2 15 2 37 0 50 -2 12 -4 0 -4 -28z"/>
<path d="M2690 2295 c0 -25 5 -45 10 -45 6 0 10 18 10 39 0 29 5 41 18 44 10
3 6 5 -10 6 -27 1 -28 -1 -28 -44z"/>
<path d="M2783 2295 c0 -27 2 -38 4 -22 2 15 2 37 0 50 -2 12 -4 0 -4 -28z"/>
<path d="M3214 2300 c1 -43 2 -45 34 -48 32 -3 32 -3 32 42 0 55 -17 62 -22 9
-4 -53 -31 -51 -39 2 l-7 40 2 -45z"/>
<path d="M3403 2295 c0 -27 2 -38 4 -22 2 15 2 37 0 50 -2 12 -4 0 -4 -28z"/>
<path d="M3523 2295 c0 -27 2 -38 4 -22 2 15 2 37 0 50 -2 12 -4 0 -4 -28z"/>
<path d="M4025 2320 c3 -14 8 -38 12 -54 4 -19 1 -31 -8 -37 -11 -7 -11 -9 -1
-9 14 0 37 47 46 96 6 28 5 27 -10 -6 l-17 -35 -13 35 c-8 19 -12 24 -9 10z"/>
<path d="M4390 2306 c0 -38 16 -56 48 -53 19 1 22 7 21 47 l-2 45 -6 -40 c-4
-27 -12 -41 -23 -43 -15 -3 -18 4 -18 37 0 23 -4 41 -10 41 -5 0 -10 -15 -10
-34z"/>
<path d="M925 2120 c3 -5 8 -10 11 -10 2 0 4 5 4 10 0 6 -5 10 -11 10 -5 0 -7
-4 -4 -10z"/>
<path d="M1263 2065 c0 -38 2 -53 4 -32 2 20 2 52 0 70 -2 17 -4 1 -4 -38z"/>
<path d="M3421 2070 c-1 -61 1 -66 21 -67 31 -3 48 14 48 47 0 31 -23 55 -44
47 -10 -4 -16 2 -19 16 -2 12 -5 -7 -6 -43z m47 8 c15 -15 15 -41 1 -55 -18
-18 -39 -3 -39 26 0 40 15 52 38 29z"/>
<path d="M4791 2070 c-1 -66 -1 -66 27 -64 15 1 30 2 35 3 4 0 7 19 7 40 0 40
-16 56 -44 45 -9 -4 -16 3 -19 18 -2 13 -5 -6 -6 -42z m54 -20 c0 -39 -19 -50
-35 -21 -8 15 -8 27 0 42 16 29 35 18 35 -21z"/>
<path d="M1811 2107 c-6 -6 -7 -15 -2 -21 5 -6 11 -26 13 -45 2 -20 9 -36 18
-39 12 -4 13 -2 3 9 -15 15 -17 76 -4 81 5 2 3 8 -4 15 -9 8 -16 8 -24 0z"/>
<path d="M3647 2107 c-9 -24 8 -100 23 -105 12 -4 13 -2 3 9 -15 15 -17 76 -4
81 5 2 3 8 -4 15 -10 9 -14 9 -18 0z"/>
<path d="M4908 2109 c-8 -25 8 -103 22 -107 12 -4 13 -2 3 9 -15 15 -17 76 -4
81 5 2 3 8 -4 15 -9 8 -15 9 -17 2z"/>
<path d="M833 2093 c-21 -8 -15 -33 12 -45 14 -6 25 -15 25 -19 0 -15 -21 -21
-35 -9 -10 8 -15 9 -15 2 0 -13 36 -26 50 -17 18 11 10 35 -15 47 -14 6 -25
15 -25 19 0 16 21 20 37 7 14 -11 15 -11 11 2 -5 16 -25 22 -45 13z"/>
<path d="M927 2093 c-11 -10 -8 -81 3 -88 6 -4 10 13 10 44 0 52 -1 56 -13 44z"/>
<path d="M1025 2080 c8 -9 16 -32 17 -51 1 -30 2 -29 7 11 4 31 11 45 21 45
10 0 17 -14 21 -45 l7 -45 -2 50 -1 50 -42 1 c-39 0 -41 -1 -28 -16z"/>
<path d="M1151 2030 c1 -36 4 -55 6 -43 3 14 9 20 19 16 21 -8 44 16 44 47 0
33 -17 50 -48 47 -20 -1 -22 -6 -21 -67z m53 37 c8 -12 8 -22 0 -34 -16 -25
-38 -22 -42 5 -7 50 18 67 42 29z"/>
<path d="M1326 2084 c-19 -18 -20 -38 -6 -65 11 -20 45 -26 55 -9 4 6 -3 9
-16 7 -12 -1 -24 4 -26 11 -3 7 5 12 21 12 31 0 40 14 26 40 -13 24 -33 26
-54 4z m42 -12 c2 -7 -6 -12 -17 -12 -21 0 -27 11 -14 24 9 9 26 2 31 -12z"/>
<path d="M1432 2046 l1 -51 6 45 c4 31 11 45 21 45 10 0 17 -14 21 -45 l6 -45
1 41 c1 26 7 44 16 47 20 8 26 -1 26 -39 0 -18 5 -36 10 -39 6 -4 10 10 10 34
0 47 -10 55 -72 57 l-48 1 2 -51z"/>
<path d="M1603 2093 c-7 -2 -13 -22 -13 -43 0 -30 4 -40 21 -45 12 -4 26 -2
32 4 9 9 5 11 -12 9 -13 -2 -26 3 -28 10 -3 7 5 12 21 12 31 0 40 14 26 40
-11 20 -23 23 -47 13z m37 -18 c11 -13 8 -15 -14 -15 -25 0 -33 10 -19 23 10
11 19 8 33 -8z"/>
<path d="M1702 2045 c1 -47 2 -47 5 -10 5 49 17 63 38 45 11 -9 15 -24 13 -42
-3 -16 -1 -31 4 -34 13 -9 9 73 -5 84 -7 6 -23 10 -35 9 -20 -1 -22 -6 -20
-52z"/>
<path d="M1903 2092 c-12 -8 -18 -31 -15 -64 2 -21 40 -34 55 -19 9 9 5 11
-12 9 -13 -2 -26 3 -28 10 -3 7 5 12 21 12 31 0 40 14 26 40 -11 21 -27 25
-47 12z m37 -17 c11 -13 8 -15 -14 -15 -25 0 -33 10 -19 23 10 11 19 8 33 -8z"/>
<path d="M2111 2030 c1 -36 4 -55 6 -44 3 16 9 20 23 17 28 -7 47 38 32 72 -8
18 -18 24 -37 23 -24 -2 -25 -5 -24 -68z m47 31 c5 -32 -5 -52 -23 -45 -15 6
-21 55 -8 68 12 12 28 0 31 -23z"/>
<path d="M2222 2045 c1 -46 2 -47 5 -10 2 22 11 45 20 52 13 10 13 12 -6 10
-19 -1 -21 -7 -19 -52z"/>
<path d="M2313 2092 c-12 -8 -18 -31 -15 -64 2 -21 40 -34 55 -19 9 9 5 11
-12 9 -13 -2 -26 3 -28 10 -3 7 5 12 21 12 31 0 44 23 26 45 -14 17 -29 19
-47 7z m37 -17 c11 -13 8 -15 -14 -15 -25 0 -33 10 -19 23 10 11 19 8 33 -8z"/>
<path d="M2410 2085 c-12 -15 -6 -35 12 -35 7 0 6 5 -2 15 -17 21 14 32 38 14
15 -13 16 -12 3 4 -16 21 -35 22 -51 2z"/>
<path d="M2513 2050 c0 -30 2 -43 4 -27 2 15 2 39 0 55 -2 15 -4 2 -4 -28z"/>
<path d="M2583 2092 c-12 -8 -18 -31 -15 -64 2 -22 39 -33 57 -18 18 15 20 61
3 78 -14 14 -28 15 -45 4z m41 -25 c8 -12 8 -22 0 -34 -16 -25 -38 -22 -42 5
-7 50 18 67 42 29z"/>
<path d="M2682 2045 c1 -47 2 -47 5 -10 3 22 8 44 13 49 15 15 39 -13 43 -52
l4 -37 1 41 c2 46 -12 64 -46 61 -20 -1 -22 -6 -20 -52z"/>
<path d="M2803 2093 c-7 -2 -13 -9 -13 -15 0 -6 6 -6 15 2 8 6 19 9 25 5 17
-11 11 -23 -16 -29 -19 -5 -25 -12 -22 -29 2 -17 10 -22 36 -22 30 -1 32 1 32
35 0 49 -20 68 -57 53z m35 -65 c-3 -7 -11 -13 -18 -13 -7 0 -15 6 -17 13 -3
7 4 12 17 12 13 0 20 -5 18 -12z"/>
<path d="M2902 2045 c1 -46 2 -47 5 -10 2 22 11 45 20 52 13 10 13 12 -6 10
-19 -1 -21 -7 -19 -52z"/>
<path d="M3080 2062 c0 -44 15 -62 48 -59 20 1 22 6 20 52 -1 47 -2 47 -5 10
-7 -64 -43 -72 -43 -10 0 19 -4 37 -10 40 -6 4 -10 -9 -10 -33z"/>
<path d="M3202 2045 l1 -50 6 45 c8 61 35 63 39 3 4 -49 22 -59 22 -12 0 45
-16 69 -45 67 -23 -2 -25 -6 -23 -53z"/>
<path d="M3542 2088 c-17 -17 -15 -63 4 -79 22 -18 48 0 52 35 6 45 -29 71
-56 44z m36 -10 c15 -15 15 -41 1 -55 -18 -18 -39 -3 -39 26 0 40 15 52 38 29z"/>
<path d="M3726 2084 c-9 -8 -16 -24 -16 -34 0 -22 26 -50 46 -50 24 0 39 46
26 75 -13 29 -34 32 -56 9z m48 -17 c8 -12 8 -22 0 -34 -16 -25 -38 -22 -42 5
-7 50 18 67 42 29z"/>
<path d="M3830 2050 c0 -29 2 -51 4 -49 8 8 10 88 3 95 -4 4 -7 -17 -7 -46z"/>
<path d="M3873 2083 c8 -10 17 -34 20 -53 4 -35 4 -35 5 6 2 38 -11 64 -32 64
-5 0 -2 -8 7 -17z"/>
<path d="M4045 2079 c4 -13 13 -37 20 -54 l13 -30 11 28 c6 15 13 40 16 55 5
24 4 23 -7 -5 -19 -46 -25 -48 -33 -14 -4 17 -11 34 -17 37 -7 4 -8 -2 -3 -17z"/>
<path d="M4157 2093 c-14 -13 -7 -25 8 -13 15 12 35 6 35 -11 0 -5 -6 -9 -13
-9 -7 0 -22 -6 -32 -14 -16 -12 -17 -16 -6 -30 7 -8 24 -15 37 -14 21 2 24 7
24 44 0 29 -5 44 -16 48 -20 8 -29 8 -37 -1z m43 -62 c0 -5 -6 -11 -12 -14
-18 -6 -39 3 -32 14 7 12 44 12 44 0z"/>
<path d="M4263 2093 c-21 -8 -15 -33 12 -45 14 -6 25 -14 25 -18 0 -15 -14
-19 -31 -9 -12 6 -19 6 -19 0 0 -16 40 -24 55 -11 22 19 18 30 -15 41 -16 6
-30 15 -30 19 0 16 21 23 33 11 17 -17 31 -13 17 4 -13 15 -25 17 -47 8z"/>
<path d="M4474 2088 c-4 -6 -3 -8 4 -5 12 8 42 -1 42 -13 0 -4 -14 -10 -31
-14 -25 -5 -30 -10 -27 -28 2 -18 9 -23 36 -23 30 -1 32 1 32 35 0 50 -36 81
-56 48z m34 -64 c-9 -9 -21 -13 -27 -10 -20 13 -11 26 16 26 25 0 26 -1 11
-16z"/>
<path d="M4692 2088 c-17 -17 -15 -63 4 -79 22 -18 48 0 52 35 6 45 -29 71
-56 44z m48 -38 c0 -16 -6 -30 -12 -33 -24 -8 -38 5 -38 33 0 16 6 30 13 33
23 8 37 -5 37 -33z"/>
<path d="M4992 2088 c-17 -17 -15 -63 3 -78 15 -13 55 -5 55 11 0 6 -7 6 -19
0 -14 -8 -22 -7 -31 4 -11 13 -8 15 19 15 23 0 31 5 31 18 0 20 -18 42 -35 42
-6 0 -16 -5 -23 -12z m48 -19 c0 -5 -12 -9 -26 -9 -22 0 -24 2 -14 14 12 15
40 11 40 -5z"/>
<path d="M5092 2045 c1 -40 2 -43 5 -15 9 72 52 77 55 6 l1 -41 4 39 c5 44 -7
61 -42 61 -24 1 -25 -2 -23 -50z"/>
<path d="M5212 2088 c-17 -17 -15 -63 3 -78 12 -10 20 -10 38 -1 12 6 14 9 5
7 -21 -6 -48 2 -48 15 0 5 11 9 25 9 30 0 43 24 25 45 -15 18 -32 19 -48 3z
m32 -4 c25 -9 19 -24 -9 -24 -24 0 -32 10 -18 23 8 8 8 8 27 1z"/>
<path d="M5328 2093 c-14 -4 -18 -14 -16 -51 1 -44 2 -44 5 -10 3 24 12 43 26
53 21 15 18 17 -15 8z"/>
<path d="M5502 2058 c-1 -27 1 -49 6 -50 4 0 19 -2 35 -3 26 -2 27 0 26 44 -2
34 -3 38 -6 16 -10 -67 -50 -68 -56 -2 l-4 42 -1 -47z"/>
<path d="M5612 2045 c1 -42 2 -44 5 -13 4 39 28 67 43 52 5 -5 10 -27 13 -49
l4 -40 1 42 c2 44 -8 58 -45 58 -21 1 -23 -3 -21 -50z"/>
<path d="M5733 2093 c-7 -2 -13 -9 -13 -15 0 -6 6 -6 15 2 8 6 19 9 25 5 17
-11 11 -23 -16 -29 -19 -5 -25 -12 -22 -29 2 -17 10 -22 36 -22 30 -1 32 1 32
35 0 49 -20 68 -57 53z m35 -65 c-3 -7 -11 -13 -18 -13 -7 0 -15 6 -17 13 -3
7 4 12 17 12 13 0 20 -5 18 -12z"/>
<path d="M980 2043 c0 -25 2 -44 4 -42 8 10 13 89 5 89 -5 0 -9 -21 -9 -47z"/>
<path d="M2448 2038 c17 -21 -4 -30 -33 -15 -19 9 -19 9 -2 -9 13 -15 21 -16
35 -8 21 14 22 36 2 42 -13 4 -13 3 -2 -10z"/>
<path d="M1030 1820 c0 -33 3 -60 8 -60 4 0 7 27 7 60 0 33 -3 60 -7 60 -5 0
-8 -27 -8 -60z"/>
<path d="M1850 1860 c0 -13 -5 -18 -15 -14 -33 13 -58 -39 -36 -75 5 -7 20
-15 35 -16 26 -3 26 -2 26 61 0 35 -2 64 -5 64 -3 0 -5 -9 -5 -20z m-2 -58 c3
-27 0 -32 -17 -32 -16 0 -21 6 -21 28 0 53 33 56 38 4z"/>
<path d="M3432 1863 c-4 -10 -5 -38 -1 -63 l6 -45 1 43 c1 26 7 42 15 42 8 0
7 4 -3 10 -13 9 -13 11 0 20 9 6 11 10 3 10 -7 0 -16 -8 -21 -17z"/>
<path d="M5160 1861 c0 -14 -5 -18 -19 -14 -24 6 -44 -27 -35 -61 7 -28 23
-37 53 -29 18 5 21 13 21 64 0 33 -4 59 -10 59 -5 0 -10 -9 -10 -19z m-2 -59
c3 -27 0 -32 -17 -32 -16 0 -21 6 -21 28 0 53 33 56 38 4z"/>
<path d="M3712 1853 c-8 -8 -9 -13 -2 -13 5 0 10 -18 10 -39 0 -38 14 -61 28
-46 4 4 1 10 -5 12 -15 5 -18 70 -4 75 5 2 4 8 -3 14 -8 8 -15 7 -24 -3z"/>
<path d="M4289 1858 c-5 -66 10 -123 28 -103 5 4 2 10 -4 12 -15 5 -18 70 -4
75 5 2 3 9 -5 16 -11 10 -14 10 -15 0z"/>
<path d="M827 1844 c-14 -15 -6 -35 18 -44 14 -5 25 -15 25 -21 0 -7 -10 -9
-25 -7 -27 6 -34 -6 -10 -16 44 -16 62 33 19 52 -14 7 -22 17 -19 22 8 13 32
13 38 0 3 -6 4 -5 3 2 -3 14 -38 23 -49 12z"/>
<path d="M932 1838 c-28 -28 1 -97 35 -84 8 3 17 6 19 6 2 0 4 4 4 8 0 4 -10
8 -22 7 -34 0 -38 19 -5 23 23 3 28 8 25 25 -3 25 -37 34 -56 15z m46 -15 c2
-8 -6 -13 -22 -13 -19 0 -24 4 -19 15 6 18 34 16 41 -2z"/>
<path d="M1097 1843 c-4 -3 -7 -21 -7 -38 0 -40 21 -61 47 -46 16 9 15 10 -9
11 -18 0 -28 5 -28 15 0 10 10 15 30 15 31 0 39 17 18 38 -13 13 -41 16 -51 5z
m51 -20 c2 -8 -6 -13 -22 -13 -25 0 -33 10 -19 24 10 10 36 3 41 -11z"/>
<path d="M1207 1843 c-13 -12 -7 -70 7 -82 11 -9 20 -10 35 -1 30 15 26 20 -9
14 -28 -6 -30 -5 -30 25 0 37 22 50 48 30 15 -13 16 -12 3 4 -14 17 -42 23
-54 10z"/>
<path d="M1312 1838 c-28 -28 1 -97 35 -84 8 3 17 6 19 6 2 0 4 4 4 9 0 4 -11
6 -24 4 -28 -6 -41 19 -26 48 12 22 21 24 39 7 11 -11 13 -10 9 2 -6 19 -40
24 -56 8z"/>
<path d="M1410 1805 c0 -25 5 -45 10 -45 6 0 10 20 10 45 0 25 -4 45 -10 45
-5 0 -10 -20 -10 -45z"/>
<path d="M1482 1838 c-17 -17 -15 -54 4 -72 21 -22 31 -20 49 8 30 45 -16 101
-53 64z m46 -36 c3 -26 0 -32 -17 -32 -26 0 -34 15 -27 46 10 37 40 28 44 -14z"/>
<path d="M1591 1801 l2 -46 6 40 c4 26 11 40 21 40 10 0 17 -14 21 -40 l7 -40
-2 45 c-1 42 -3 45 -28 46 -27 1 -28 -1 -27 -45z"/>
<path d="M1910 1830 c-19 -36 11 -87 44 -74 25 10 19 22 -9 16 -18 -3 -25 0
-25 12 0 11 9 16 30 16 33 0 35 3 20 31 -14 25 -46 24 -60 -1z m48 -8 c2 -7
-6 -12 -17 -12 -21 0 -27 11 -14 24 9 9 26 2 31 -12z"/>
<path d="M2127 1843 c-12 -12 -7 -70 7 -82 7 -6 21 -9 30 -5 25 10 19 22 -9
16 -18 -3 -25 0 -25 12 0 11 9 16 30 16 31 0 39 17 18 38 -13 13 -41 16 -51 5z
m47 -18 c4 -11 -1 -15 -19 -15 -24 0 -32 10 -18 23 11 12 31 8 37 -8z"/>
<path d="M2232 1800 c-1 -31 -7 -61 -14 -68 -9 -9 -9 -12 0 -12 19 0 24 21 19
81 l-3 54 -2 -55z"/>
<path d="M2292 1838 c-32 -32 1 -98 42 -82 23 9 19 20 -6 19 -34 0 -38 19 -5
23 23 3 28 8 25 25 -3 25 -37 34 -56 15z m46 -15 c2 -8 -6 -13 -22 -13 -19 0
-24 4 -19 15 6 18 34 16 41 -2z"/>
<path d="M2390 1805 c0 -25 5 -45 10 -45 6 0 10 20 10 45 0 25 -4 45 -10 45
-5 0 -10 -20 -10 -45z"/>
<path d="M2482 1838 c-20 -20 -15 -66 9 -79 17 -8 24 -8 35 3 12 12 10 14 -13
13 -30 0 -42 27 -23 55 8 13 13 13 31 2 18 -11 20 -11 17 0 -6 18 -40 22 -56
6z"/>
<path d="M2580 1805 c0 -25 5 -45 10 -45 6 0 10 20 10 45 0 25 -4 45 -10 45
-5 0 -10 -20 -10 -45z"/>
<path d="M2651 1836 c-17 -20 -10 -67 11 -80 14 -8 22 -7 35 6 16 16 15 17
-13 15 -25 -2 -29 2 -32 26 -4 31 20 46 43 27 9 -7 15 -8 15 -2 0 9 -22 22
-40 22 -4 0 -13 -6 -19 -14z"/>
<path d="M2753 1805 c0 -27 2 -38 4 -22 2 15 2 37 0 50 -2 12 -4 0 -4 -28z"/>
<path d="M2817 1843 c-13 -12 -7 -70 7 -82 37 -31 78 43 44 77 -13 13 -41 16
-51 5z m48 -38 c0 -23 -5 -31 -22 -33 -19 -3 -23 1 -23 26 0 33 8 44 30 40 9
-2 15 -14 15 -33z"/>
<path d="M2924 1836 c-7 -18 3 -36 19 -35 9 0 9 2 0 6 -17 6 -17 33 0 33 7 0
19 -6 26 -12 11 -11 13 -10 9 2 -6 21 -47 25 -54 6z"/>
<path d="M3121 1780 c1 -36 4 -55 6 -42 3 16 9 22 20 18 22 -9 43 12 43 44 0
33 -17 50 -48 47 -20 -1 -22 -6 -21 -67z m54 25 c0 -23 -4 -30 -20 -30 -21 0
-31 25 -21 51 11 28 41 12 41 -21z"/>
<path d="M3241 1836 c-31 -37 11 -108 44 -75 13 13 13 15 -7 14 -33 0 -38 19
-5 23 29 4 35 20 15 40 -16 16 -33 15 -47 -2z m47 -13 c2 -8 -6 -13 -22 -13
-25 0 -33 10 -19 24 10 10 36 3 41 -11z"/>
<path d="M3341 1803 c1 -27 3 -39 6 -28 2 11 6 30 8 42 3 12 13 24 23 26 10 3
6 5 -10 6 -27 1 -28 -1 -27 -46z"/>
<path d="M3502 1838 c-28 -28 1 -97 35 -84 8 3 17 6 19 6 2 0 4 4 4 8 0 4 -10
8 -22 7 -34 0 -38 19 -5 23 23 3 28 8 25 25 -3 25 -37 34 -56 15z m46 -15 c2
-8 -6 -13 -22 -13 -19 0 -24 4 -19 15 6 18 34 16 41 -2z"/>
<path d="M3612 1838 c-28 -28 1 -97 35 -84 8 3 17 6 19 6 2 0 4 4 4 8 0 4 -12
8 -27 7 -30 0 -42 27 -23 55 8 13 13 13 31 2 18 -11 20 -11 17 0 -6 18 -40 22
-56 6z"/>
<path d="M3795 1840 c-4 -7 2 -9 19 -4 20 5 26 2 26 -9 0 -9 -10 -17 -22 -19
-24 -3 -36 -34 -20 -50 5 -5 21 -6 36 -2 21 5 26 12 26 38 0 18 -5 37 -12 44
-15 15 -45 16 -53 2z m46 -55 c0 -5 -9 -11 -21 -13 -20 -3 -27 8 -13 22 10 9
34 3 34 -9z"/>
<path d="M3901 1802 l2 -47 6 40 c4 26 11 40 21 40 10 0 17 -14 21 -40 l6 -40
2 38 c0 24 7 40 16 44 21 7 27 0 35 -44 l8 -38 1 35 c1 49 -7 57 -66 58 l-53
1 1 -47z"/>
<path d="M4064 1836 c-18 -48 21 -105 51 -75 13 13 12 15 -11 14 -15 0 -29 6
-31 13 -3 8 6 12 26 12 19 0 31 5 31 13 0 32 -55 51 -66 23z m54 -13 c2 -8 -6
-13 -22 -13 -25 0 -33 10 -19 24 10 10 36 3 41 -11z"/>
<path d="M4172 1795 l1 -50 6 45 c5 36 10 45 26 45 16 0 21 -9 26 -40 l6 -40
2 36 c1 41 -14 59 -47 56 -20 -1 -22 -6 -20 -52z"/>
<path d="M4360 1830 c-21 -40 8 -88 45 -74 24 10 17 22 -10 16 -18 -3 -25 0
-25 12 0 11 9 16 30 16 33 0 35 3 20 31 -14 25 -46 24 -60 -1z m48 -8 c2 -7
-6 -12 -17 -12 -21 0 -27 11 -14 24 9 9 26 2 31 -12z"/>
<path d="M4571 1780 c1 -36 4 -55 6 -42 3 15 10 22 19 18 19 -7 44 20 44 48 0
29 -19 46 -48 43 -20 -1 -22 -6 -21 -67z m55 36 c7 -31 -1 -46 -27 -46 -14 0
-19 7 -19 28 0 48 35 61 46 18z"/>
<path d="M4687 1843 c-12 -12 -7 -70 7 -82 7 -6 21 -9 30 -5 25 10 19 22 -9
16 -18 -3 -25 0 -25 12 0 11 9 16 30 16 31 0 39 17 18 38 -13 13 -41 16 -51 5z
m47 -18 c4 -11 -1 -15 -19 -15 -24 0 -32 10 -18 23 11 12 31 8 37 -8z"/>
<path d="M4792 1795 l1 -50 6 45 c4 31 11 46 23 48 19 4 34 -37 24 -63 -3 -8
-1 -15 4 -15 15 0 12 66 -3 78 -7 6 -23 10 -35 9 -20 -1 -22 -6 -20 -52z"/>
<path d="M4907 1844 c-14 -15 -6 -35 18 -44 14 -5 25 -15 25 -21 0 -7 -10 -9
-25 -7 -27 6 -34 -6 -10 -16 23 -8 45 4 45 25 0 12 -9 21 -25 25 -14 3 -25 12
-25 20 0 17 22 18 39 2 11 -11 13 -10 9 2 -5 16 -39 25 -51 14z"/>
<path d="M5005 1840 c-4 -7 2 -9 19 -4 20 5 26 2 26 -9 0 -9 -10 -17 -22 -19
-17 -2 -23 -10 -23 -28 0 -14 6 -25 13 -24 6 1 20 2 30 3 15 1 18 8 17 35 -2
19 -6 39 -9 45 -9 14 -43 14 -51 1z m45 -55 c0 -8 -9 -15 -20 -15 -20 0 -26
11 -13 23 12 13 33 7 33 -8z"/>
<path d="M5225 1841 c-4 -7 2 -10 16 -8 12 1 24 -4 26 -10 3 -8 -4 -13 -15
-13 -11 0 -25 -7 -32 -16 -18 -21 6 -46 38 -37 20 5 23 11 20 47 -2 33 -7 42
-25 44 -11 2 -24 -2 -28 -7z m45 -56 c0 -8 -9 -15 -20 -15 -20 0 -26 11 -13
23 12 13 33 7 33 -8z"/>
<path d="M5431 1783 c1 -38 4 -58 6 -46 3 13 10 20 17 17 16 -6 46 22 46 42 0
29 -21 54 -45 54 -24 0 -25 -2 -24 -67z m47 41 c13 -24 3 -54 -19 -54 -14 0
-19 7 -19 28 0 43 21 57 38 26z"/>
<path d="M5546 1842 c-3 -5 4 -8 16 -8 12 1 23 -5 25 -11 3 -8 -4 -13 -15 -13
-11 0 -25 -7 -32 -15 -17 -20 1 -40 36 -40 23 -1 25 2 22 45 -3 37 -7 46 -25
48 -11 2 -24 -1 -27 -6z m44 -57 c0 -9 -9 -15 -25 -15 -24 0 -32 10 -18 23 12
13 43 7 43 -8z"/>
<path d="M5641 1805 l1 -50 8 40 c5 22 4 44 -1 50 -5 5 -9 -11 -8 -40z"/>
<path d="M5725 1840 c-4 -7 2 -9 19 -4 20 5 26 2 26 -9 0 -9 -10 -17 -22 -19
-27 -4 -37 -42 -14 -51 31 -12 56 4 56 37 0 18 -5 37 -12 44 -15 15 -45 16
-53 2z m45 -55 c0 -8 -9 -15 -20 -15 -20 0 -26 11 -13 23 12 13 33 7 33 -8z"/>
<path d="M2967 1784 c5 -14 1 -16 -20 -12 -15 3 -27 2 -27 -2 0 -12 28 -20 45
-14 16 7 21 44 5 44 -5 0 -7 -7 -3 -16z"/>
<path d="M3173 1633 c-7 -3 -13 -11 -13 -19 0 -8 -6 -14 -12 -14 -10 0 -10 -2
-1 -8 6 -4 13 -25 16 -47 l4 -40 1 43 c1 23 7 42 13 42 8 0 8 4 0 14 -9 11 -9
15 1 19 7 2 11 7 8 9 -3 3 -11 3 -17 1z"/>
<path d="M3846 1615 c-9 -14 -12 -25 -7 -25 6 0 12 -19 14 -42 l4 -43 1 43 c1
26 7 42 15 42 8 0 7 4 -3 11 -11 8 -12 12 -2 16 6 2 12 9 12 14 0 17 -18 9
-34 -16z"/>
<path d="M4607 1626 c-11 -11 -13 -28 -9 -63 6 -61 12 -68 12 -15 0 27 5 42
13 42 8 0 7 4 -3 10 -13 9 -13 11 0 19 8 6 12 13 8 16 -3 3 -12 -1 -21 -9z"/>
<path d="M2263 1570 c0 -36 2 -50 4 -32 2 17 2 47 0 65 -2 17 -4 3 -4 -33z"/>
<path d="M2560 1615 c0 -9 -9 -15 -25 -15 -18 0 -26 -7 -31 -24 -10 -41 4 -66
37 -66 29 0 29 0 29 60 0 33 -2 60 -5 60 -3 0 -5 -7 -5 -15z m-5 -60 c0 -23
-4 -30 -20 -30 -21 0 -31 25 -21 51 11 28 41 12 41 -21z"/>
<path d="M2940 1616 c0 -9 -12 -16 -27 -18 -25 -3 -28 -7 -28 -43 0 -38 2 -40
33 -43 l32 -3 0 60 c0 34 -2 61 -5 61 -3 0 -5 -6 -5 -14z m-5 -45 c8 -26 -5
-53 -24 -49 -29 6 -27 68 3 68 8 0 17 -8 21 -19z"/>
<path d="M1630 1605 c-9 -11 -9 -15 -1 -15 6 0 11 -17 11 -40 0 -32 4 -40 18
-39 10 0 12 3 5 6 -15 5 -18 70 -4 75 5 2 3 8 -4 15 -10 10 -16 9 -25 -2z"/>
<path d="M2318 1608 c-2 -6 -1 -29 2 -52 4 -31 10 -41 25 -44 18 -2 18 -2 3 8
-23 14 -24 67 -3 72 13 2 12 5 -4 15 -14 9 -21 9 -23 1z"/>
<path d="M5230 1605 c-9 -11 -9 -15 -1 -15 6 0 11 -17 11 -40 0 -32 4 -40 18
-39 10 0 12 3 5 6 -15 5 -18 70 -4 75 5 2 3 8 -4 15 -10 10 -16 9 -25 -2z"/>
<path d="M825 1590 c-4 -7 2 -9 19 -4 20 5 26 2 26 -9 0 -9 -10 -17 -22 -19
-15 -2 -24 -11 -26 -25 -3 -20 1 -23 32 -23 33 0 36 2 36 29 0 16 -3 36 -6 45
-7 18 -49 22 -59 6z m45 -55 c0 -8 -9 -15 -20 -15 -11 0 -20 7 -20 15 0 8 9
15 20 15 11 0 20 -7 20 -15z"/>
<path d="M927 1586 c-6 -15 6 -29 36 -39 31 -11 20 -30 -15 -23 -24 5 -29 3
-21 -5 16 -16 57 -7 61 13 2 12 -5 19 -22 24 -35 8 -35 38 -1 32 13 -3 22 -1
19 3 -9 14 -51 10 -57 -5z"/>
<path d="M1034 1586 c-3 -8 -4 -27 -2 -43 2 -22 9 -29 31 -31 15 -2 27 1 27 6
0 5 -11 7 -25 4 -18 -3 -25 0 -25 12 0 11 9 16 30 16 31 0 35 6 24 34 -8 20
-53 21 -60 2z m54 -13 c2 -8 -6 -13 -22 -13 -17 0 -26 5 -26 16 0 19 41 16 48
-3z"/>
<path d="M1144 1586 c-3 -8 -4 -27 -2 -43 2 -20 9 -29 26 -31 27 -4 28 -10 5
-28 -10 -7 -13 -14 -6 -14 26 0 43 32 43 81 0 48 -1 49 -30 49 -17 0 -33 -6
-36 -14z m51 -15 c8 -26 -5 -53 -24 -49 -29 6 -27 68 3 68 8 0 17 -8 21 -19z"/>
<path d="M1254 1560 c1 -43 2 -45 34 -48 l32 -3 -1 48 c-1 26 -3 39 -6 28 -2
-11 -6 -30 -9 -43 -8 -39 -38 -23 -45 23 l-7 40 2 -45z"/>
<path d="M1361 1550 l2 -45 6 39 c4 26 13 42 26 47 17 6 15 7 -7 6 -26 -1 -28
-4 -27 -47z"/>
<path d="M1446 1591 c-3 -4 6 -6 19 -3 18 3 25 0 25 -12 0 -9 -8 -16 -19 -16
-22 0 -45 -25 -36 -40 3 -5 22 -10 41 -10 32 0 34 2 34 33 0 18 -5 38 -12 45
-14 14 -44 16 -52 3z m44 -56 c0 -8 -9 -15 -20 -15 -11 0 -20 7 -20 15 0 8 9
15 20 15 11 0 20 -7 20 -15z"/>
<path d="M1552 1553 c1 -40 2 -42 5 -13 2 19 11 41 20 48 15 11 14 12 -5 12
-20 0 -22 -5 -20 -47z"/>
<path d="M1712 1588 c-15 -15 -16 -50 0 -66 14 -14 44 -16 52 -4 2 4 -5 8 -17
7 -33 0 -36 20 -4 23 23 3 28 8 25 25 -3 25 -37 34 -56 15z m48 -13 c0 -8 -9
-15 -20 -15 -11 0 -20 7 -20 15 0 8 9 15 20 15 11 0 20 -7 20 -15z"/>
<path d="M1860 1555 c0 -25 5 -45 10 -45 6 0 10 18 10 39 0 29 5 41 18 44 10
3 6 5 -10 6 -27 1 -28 -1 -28 -44z"/>
<path d="M1944 1576 c-9 -38 4 -66 31 -66 13 0 26 4 29 8 2 4 -7 8 -21 7 -14
0 -28 6 -30 13 -3 8 6 12 27 12 27 0 31 3 28 23 -2 16 -11 23 -30 25 -22 3
-29 -2 -34 -22z m54 -3 c2 -8 -5 -13 -17 -13 -21 0 -35 13 -24 24 10 10 36 3
41 -11z"/>
<path d="M2057 1593 c-14 -13 -6 -30 18 -41 33 -15 33 -36 0 -30 -13 3 -22 1
-19 -3 3 -5 16 -9 30 -9 33 0 33 37 -1 50 -33 12 -33 34 0 28 13 -3 22 -1 19
3 -6 11 -38 12 -47 2z"/>
<path d="M2154 1560 c1 -43 2 -45 34 -48 l32 -3 -1 48 -2 48 -6 -40 c-5 -31
-10 -40 -26 -40 -16 0 -21 9 -26 40 l-7 40 2 -45z"/>
<path d="M2400 1592 c0 -5 10 -8 21 -8 33 1 35 -22 2 -26 -20 -2 -28 -9 -28
-23 0 -15 8 -21 33 -23 l33 -3 -3 43 c-3 39 -6 43 -30 46 -16 2 -28 -1 -28 -6z
m50 -51 c0 -6 -5 -13 -10 -16 -15 -9 -43 3 -35 15 8 13 45 13 45 1z"/>
<path d="M2621 1578 c-17 -46 21 -86 54 -58 18 15 19 52 3 68 -19 19 -48 14
-57 -10z m54 -23 c0 -23 -5 -31 -22 -33 -20 -3 -23 1 -23 33 0 32 3 36 23 33
17 -2 22 -10 22 -33z"/>
<path d="M2730 1580 c0 -13 10 -24 25 -30 14 -5 25 -15 25 -21 0 -7 -10 -9
-25 -7 -14 3 -25 1 -25 -4 0 -5 12 -8 27 -6 36 4 41 31 8 46 -32 15 -33 36 0
30 13 -3 22 -1 19 3 -3 5 -16 9 -30 9 -17 0 -24 -5 -24 -20z"/>
<path d="M2994 1587 c-3 -9 -4 -28 -2 -44 2 -21 9 -29 27 -31 13 -2 27 0 32 5
5 5 -3 9 -18 8 -14 0 -28 6 -30 13 -3 8 6 12 27 12 27 0 31 3 28 23 -4 27 -54
38 -64 14z m54 -14 c2 -8 -6 -13 -22 -13 -25 0 -33 10 -19 24 10 10 36 3 41
-11z"/>
<path d="M3224 1587 c-3 -9 -4 -28 -2 -44 3 -24 7 -28 33 -28 28 0 30 2 30 40
0 36 -3 40 -28 43 -17 2 -29 -2 -33 -11z m51 -32 c0 -23 -4 -30 -20 -30 -21 0
-31 25 -21 51 11 28 41 12 41 -21z"/>
<path d="M3330 1555 c0 -25 5 -45 10 -45 6 0 10 18 10 39 0 29 5 41 18 44 10
3 6 5 -10 6 -27 1 -28 -1 -28 -44z"/>
<path d="M3414 1589 c-3 -6 -3 -13 1 -17 3 -3 10 0 15 7 15 25 40 4 41 -36 l2
-38 6 40 c4 27 12 41 24 43 14 3 17 -4 17 -37 0 -23 5 -41 10 -41 11 0 13 60
2 76 -9 14 -109 16 -118 3z"/>
<path d="M3580 1592 c0 -5 10 -8 21 -8 33 1 35 -22 2 -26 -20 -2 -28 -9 -28
-23 0 -15 8 -21 33 -23 l33 -3 -3 43 c-3 39 -6 43 -30 46 -16 2 -28 -1 -28 -6z
m50 -51 c0 -6 -5 -13 -10 -16 -15 -9 -43 3 -35 15 8 13 45 13 45 1z"/>
<path d="M3742 1588 c-13 -13 -16 -37 -6 -62 6 -16 49 -22 58 -8 2 4 -7 8 -21
7 -14 0 -28 6 -30 13 -3 8 6 12 27 12 27 0 31 3 28 23 -3 25 -36 35 -56 15z
m46 -15 c2 -8 -6 -13 -22 -13 -25 0 -33 10 -19 24 10 10 36 3 41 -11z"/>
<path d="M3923 1555 c0 -27 2 -38 4 -22 2 15 2 37 0 50 -2 12 -4 0 -4 -28z"/>
<path d="M3984 1586 c-3 -8 -4 -27 -2 -43 2 -21 9 -29 27 -31 13 -2 28 1 34 7
8 8 3 10 -21 5 -31 -6 -32 -5 -32 25 0 36 22 50 45 31 13 -11 14 -10 9 4 -8
20 -53 21 -60 2z"/>
<path d="M4096 1592 c-3 -5 6 -7 19 -4 18 3 25 0 25 -12 0 -9 -8 -16 -19 -16
-22 0 -45 -25 -36 -40 3 -5 20 -10 36 -10 29 0 30 1 27 43 -2 34 -7 43 -25 45
-11 2 -24 -1 -27 -6z m44 -57 c0 -16 -35 -21 -44 -6 -8 12 4 21 26 21 10 0 18
-7 18 -15z"/>
<path d="M4208 1593 c27 -5 27 -11 2 -43 -27 -34 -25 -40 13 -39 30 2 30 2 4
6 l-27 4 25 33 c32 42 32 46 -7 45 -24 -1 -27 -3 -10 -6z"/>
<path d="M4345 1553 c9 -31 11 -51 5 -57 -15 -15 -12 -30 3 -17 12 9 24 40 43
110 2 9 -4 -2 -15 -24 l-19 -40 -7 33 c-4 18 -11 35 -16 38 -5 2 -2 -17 6 -43z"/>
<path d="M4492 1588 c-13 -13 -16 -37 -6 -62 6 -16 49 -22 58 -8 2 4 -7 8 -21
7 -14 0 -28 6 -30 13 -3 8 6 12 27 12 27 0 31 3 28 23 -3 25 -36 35 -56 15z
m46 -15 c2 -8 -6 -13 -22 -13 -19 0 -24 4 -19 15 6 18 34 16 41 -2z"/>
<path d="M4670 1555 c0 -25 5 -45 10 -45 6 0 10 20 10 45 0 25 -4 45 -10 45
-5 0 -10 -20 -10 -45z"/>
<path d="M4734 1587 c-3 -9 -4 -28 -2 -44 2 -24 8 -28 32 -28 17 0 31 6 34 15
5 13 3 13 -11 1 -23 -19 -47 -7 -47 24 0 31 24 43 47 24 14 -12 16 -12 11 1
-6 20 -56 26 -64 7z"/>
<path d="M4843 1555 c0 -27 2 -38 4 -22 2 15 2 37 0 50 -2 12 -4 0 -4 -28z"/>
<path d="M4904 1586 c-3 -8 -4 -27 -2 -43 2 -22 9 -29 30 -31 30 -4 44 23 34
64 -5 17 -13 24 -32 24 -13 0 -27 -6 -30 -14z m51 -31 c0 -23 -4 -30 -20 -30
-21 0 -31 25 -21 51 11 28 41 12 41 -21z"/>
<path d="M5011 1553 l2 -48 6 40 c5 31 10 40 26 40 16 0 21 -9 26 -40 l7 -40
-2 45 c-1 43 -2 45 -33 48 l-33 3 1 -48z"/>
<path d="M5124 1587 c-3 -9 -4 -28 -2 -44 2 -21 9 -29 27 -31 13 -2 28 1 34 7
7 7 2 10 -18 8 -15 -1 -30 4 -32 11 -3 8 6 12 27 12 27 0 31 3 28 23 -4 27
-54 38 -64 14z m54 -14 c2 -8 -6 -13 -22 -13 -25 0 -33 10 -19 24 10 10 36 3
41 -11z"/>
<path d="M5309 1579 c-16 -31 3 -69 36 -69 14 0 25 4 25 9 0 4 -11 6 -25 3
-18 -3 -25 0 -25 12 0 11 9 16 30 16 33 0 35 3 20 31 -14 25 -46 24 -61 -2z
m51 -4 c0 -8 -9 -15 -20 -15 -11 0 -20 7 -20 15 0 8 9 15 20 15 11 0 20 -7 20
-15z"/>
<path d="M5415 1520 c-3 -5 -1 -10 4 -10 6 0 11 5 11 10 0 6 -2 10 -4 10 -3 0
-8 -4 -11 -10z"/>
<path d="M826 584 c-14 -13 -16 -48 -16 -225 0 -196 1 -210 20 -229 20 -20 33
-20 1013 -20 950 0 995 1 1010 18 15 16 17 48 17 233 0 154 -3 218 -12 227 -9
9 -248 12 -1014 12 -898 0 -1004 -2 -1018 -16z m639 -174 c11 -18 -5 -32 -21
-19 -19 15 -38 -1 -32 -27 3 -14 12 -18 31 -17 32 2 35 -12 7 -27 -48 -26 -93
45 -54 84 17 18 60 21 69 6z m125 -9 c17 -32 11 -60 -15 -77 -23 -15 -27 -15
-50 0 -27 18 -34 63 -13 84 19 19 66 15 78 -7z m77 -8 l6 -28 10 28 c5 17 16
27 28 27 16 0 19 -7 19 -49 0 -50 -15 -76 -26 -46 -6 14 -8 14 -19 -1 -11 -16
-13 -16 -22 0 -9 17 -11 17 -16 1 -12 -30 -27 -5 -27 46 0 42 3 49 20 49 13 0
22 -9 27 -27z m173 17 c0 -5 -13 -10 -30 -10 -16 0 -30 -4 -30 -10 0 -5 11
-10 25 -10 14 0 25 -4 25 -10 0 -5 -9 -10 -19 -10 -30 0 -35 -18 -6 -22 14 -2
26 -7 27 -13 2 -13 -27 -18 -58 -11 -21 6 -24 12 -24 56 l0 50 45 0 c25 0 45
-4 45 -10z m64 -17 l15 -28 1 28 c0 17 5 27 15 27 11 0 15 -12 15 -49 0 -58
-15 -74 -40 -41 l-17 23 -6 -23 c-10 -37 -27 -12 -27 41 0 57 20 67 44 22z
m146 16 c0 -6 -9 -23 -21 -37 l-21 -27 22 -5 c33 -8 24 -25 -15 -28 -45 -4
-57 19 -26 52 26 28 27 36 1 36 -11 0 -20 5 -20 10 0 6 18 10 40 10 22 0 40
-5 40 -11z m101 -39 c18 -48 16 -68 -6 -50 -9 7 -27 9 -45 5 -35 -8 -36 -5
-13 53 21 55 42 52 64 -8z m119 35 c10 -12 10 -18 1 -29 -9 -11 -9 -20 -2 -35
15 -28 -2 -35 -25 -10 l-18 20 -8 -21 c-13 -35 -28 -13 -28 41 l0 49 34 0 c18
0 39 -7 46 -15z"/>
<path d="M1537 394 c-4 -4 -7 -18 -7 -31 0 -18 5 -24 18 -21 10 2 17 12 17 27
0 24 -15 37 -28 25z"/>
<path d="M2110 370 c0 -5 5 -10 11 -10 5 0 7 5 4 10 -3 6 -8 10 -11 10 -2 0
-4 -4 -4 -10z"/>
<path d="M2220 390 c0 -5 7 -10 16 -10 8 0 12 5 9 10 -3 6 -10 10 -16 10 -5 0
-9 -4 -9 -10z"/>
</g>
</svg>
